<svg width="172" height="29" viewBox="0 0 172 29" fill="none" xmlns="http://www.w3.org/2000/svg">
<path d="M11.2206 2.49206C14.1218 3.46277 16.463 5.19885 18.235 7.69096C20.007 10.1831 20.7966 12.9459 20.5946 15.998C20.4385 18.6021 19.5571 20.9449 17.9596 23.045C16.362 25.1357 14.333 26.6665 11.8908 27.6092C10.2014 28.2719 8.44783 28.6079 6.62995 28.6079H1.27731C1.02023 28.6079 0.799884 28.5146 0.616259 28.3279C0.432635 28.1412 0.34082 27.9172 0.34082 27.6559V2.6974C0.34082 2.43606 0.432635 2.21205 0.616259 2.02537C0.799884 1.8387 1.02023 1.74536 1.27731 1.74536H6.62995C8.20912 1.74536 9.74238 1.98804 11.2206 2.49206ZM6.62077 23.913C8.26421 23.913 9.79747 23.521 11.193 22.737C12.5977 21.9529 13.6995 20.8889 14.5166 19.5448C15.3246 18.2008 15.7377 16.7447 15.7377 15.1673C15.7377 13.5899 15.3337 12.1245 14.5166 10.7804C13.7087 9.42704 12.5977 8.36299 11.193 7.57896C9.78829 6.79492 8.26421 6.4029 6.62077 6.4029H5.54657C5.46394 6.4029 5.38131 6.44024 5.30786 6.51491C5.23441 6.58958 5.19768 6.67358 5.19768 6.75759V23.577C5.19768 23.661 5.23441 23.745 5.29868 23.8103C5.36294 23.8757 5.44558 23.913 5.54657 23.913H6.62077Z" fill="#00C0FF"/>
<path d="M33.0443 9.46436C34.3388 9.46436 35.5691 9.71637 36.7443 10.2297C37.9195 10.7431 38.9294 11.4338 39.7833 12.2925C40.6371 13.1512 41.3073 14.1872 41.8123 15.3819C42.3173 16.5767 42.5652 17.8274 42.5652 19.1434C42.5652 20.8982 42.1428 22.5129 41.289 23.997C40.4443 25.4811 39.2875 26.6571 37.8185 27.5252C36.3587 28.3839 34.7611 28.8225 33.0351 28.8225C31.7405 28.8225 30.5102 28.5705 29.335 28.0572C28.1598 27.5438 27.1499 26.8531 26.2961 25.9944C25.4514 25.1357 24.772 24.0997 24.267 22.9049C23.7621 21.7102 23.5142 20.4595 23.5142 19.1434C23.5142 17.3887 23.9365 15.774 24.7903 14.2899C25.635 12.8058 26.7919 11.6298 28.2608 10.7617C29.7298 9.90304 31.3182 9.46436 33.0443 9.46436ZM29.7574 22.4756C30.6663 23.3903 31.7589 23.857 33.0443 23.857C34.3296 23.857 35.413 23.3996 36.3219 22.4756C37.2217 21.5609 37.6808 20.4502 37.6808 19.1434C37.6808 17.8461 37.2309 16.726 36.3219 15.802C35.413 14.8779 34.3296 14.4112 33.0443 14.4112C31.7589 14.4112 30.6663 14.8779 29.7574 15.802C28.8484 16.726 28.3894 17.8367 28.3894 19.1434C28.3986 20.4502 28.8484 21.5609 29.7574 22.4756Z" fill="#00C0FF"/>
<path d="M52.5636 15.9047C53.0043 16.0074 53.3532 16.082 53.5919 16.138C53.8398 16.1941 54.2071 16.3061 54.712 16.4647C55.2078 16.6234 55.6118 16.7914 55.9331 16.9594C56.2545 17.1274 56.6125 17.3608 57.0349 17.6501C57.4572 17.9395 57.7969 18.2661 58.0632 18.6022C58.3294 18.9475 58.5681 19.3675 58.7885 19.8809C59.0088 20.3942 59.1557 20.9449 59.2292 21.5423C59.4403 23.241 58.9905 24.7904 57.8795 26.1905C57.2552 26.9932 56.4656 27.6279 55.52 28.1133C54.5743 28.5986 53.5552 28.888 52.4534 28.9813C52.279 28.9906 52.0311 29 51.7006 29C49.9562 29 48.4045 28.5333 47.0549 27.5906C45.7053 26.6479 44.8147 25.4438 44.4015 23.9504C44.3373 23.7171 44.374 23.493 44.5117 23.2877C44.6494 23.0824 44.8422 22.9704 45.0809 22.9424L48.4413 22.513C48.8085 22.4663 49.0656 22.5783 49.2125 22.849C49.4236 23.213 49.7909 23.5117 50.3234 23.7451C50.8559 23.9784 51.4343 24.0811 52.0586 24.0251C52.9676 23.9504 53.647 23.6237 54.1061 23.0544C54.3264 22.765 54.4182 22.4757 54.3815 22.177C54.3448 21.8503 54.1336 21.589 53.748 21.4023C53.3624 21.2063 52.6279 20.9916 51.5629 20.7583C50.5437 20.5343 49.8368 20.3289 49.442 20.1609C47.8261 19.4702 46.7152 18.4435 46.0909 17.0621C45.4665 15.69 45.4665 14.2433 46.0817 12.7312C46.6234 11.4338 47.5782 10.4631 48.9554 9.83777C50.3326 9.20307 51.8199 9.05374 53.3991 9.38042C54.3723 9.57643 55.3088 10.0524 56.2177 10.8085C57.1267 11.5552 57.7143 12.5166 57.9714 13.6739C58.0356 13.926 57.9897 14.1593 57.8336 14.3646C57.6775 14.5793 57.4756 14.6913 57.2185 14.7007L53.6011 14.794C53.4175 14.794 53.2338 14.7193 53.0502 14.57C52.8758 14.4206 52.6646 14.3086 52.4075 14.234C51.9668 14.1313 51.5629 14.1406 51.2048 14.2433C50.8467 14.346 50.6356 14.4766 50.5805 14.626C50.4244 14.99 50.6631 15.3073 51.315 15.578C51.3792 15.6247 51.8016 15.7274 52.5636 15.9047Z" fill="#00C0FF"/>
<path d="M67.5106 2.5855C67.8136 2.43616 68.1166 2.45483 68.4012 2.63217C68.6858 2.80951 68.8327 3.08019 68.8327 3.42554V8.5311C68.8327 8.79245 68.9245 9.01645 69.099 9.20313C69.2734 9.3898 69.4938 9.48314 69.7508 9.48314H72.2389C72.496 9.48314 72.7164 9.57648 72.8908 9.75382C73.0652 9.93116 73.157 10.1552 73.157 10.4165V13.4967C73.157 13.758 73.0652 13.982 72.8908 14.1594C72.7164 14.3367 72.496 14.43 72.2389 14.43H69.7508C69.4938 14.43 69.2734 14.5234 69.099 14.71C68.9153 14.8967 68.8327 15.1207 68.8327 15.3821V21.645C68.8327 22.121 68.9704 22.5411 69.2459 22.9237C69.5213 23.3064 69.8794 23.5584 70.3109 23.6891C70.4945 23.7358 70.6506 23.8478 70.7608 24.0251C70.8801 24.2025 70.9352 24.3891 70.9352 24.5852V27.7213C70.9352 28.0106 70.8342 28.244 70.623 28.4307C70.4119 28.6173 70.1732 28.692 69.9069 28.6547C68.2176 28.4027 66.8037 27.6093 65.6652 26.2839C64.5175 24.9492 63.9483 23.3998 63.9483 21.6264V15.3634C63.9483 15.1021 63.8565 14.878 63.682 14.7007C63.5076 14.5234 63.2873 14.43 63.0302 14.43H62.4885C62.2314 14.43 62.0111 14.3367 61.8274 14.15C61.6438 13.9633 61.552 13.7393 61.552 13.478V10.4165C61.552 10.1552 61.6438 9.93116 61.8274 9.74449C62.0111 9.55781 62.2314 9.46448 62.4885 9.46448H63.021C63.2781 9.46448 63.4984 9.37114 63.6729 9.1938C63.8473 9.01646 63.9391 8.79245 63.9391 8.5311V4.87227C63.9391 4.46159 64.1136 4.17224 64.4716 4.01357L67.5106 2.5855Z" fill="#00C0FF"/>
<path d="M88.2692 20.9636V11.6765C88.2692 11.4152 88.361 11.1912 88.5355 11.0138C88.7099 10.8365 88.9303 10.7431 89.1873 10.7431H92.208C92.465 10.7431 92.6854 10.8365 92.869 11.0138C93.0526 11.1912 93.1444 11.4152 93.1444 11.6765V27.8986C93.1444 28.1599 93.0526 28.3839 92.869 28.5613C92.6854 28.7386 92.465 28.832 92.208 28.832H89.9402C89.472 28.832 89.0772 28.6639 88.7466 28.3373C88.4161 28.0106 88.26 27.6092 88.26 27.1425C87.8744 27.5719 87.2685 27.9639 86.433 28.3466C85.5975 28.7199 84.8814 28.9066 84.2938 28.9066C82.0168 28.9066 80.1622 28.1693 78.7299 26.6852C77.2977 25.2011 76.5815 23.297 76.5815 20.9543V11.5178C76.5815 11.2565 76.6733 11.0325 76.8478 10.8552C77.0222 10.6778 77.2426 10.5845 77.4997 10.5845H80.5295C80.7865 10.5845 81.0069 10.6778 81.1813 10.8552C81.3558 11.0325 81.4476 11.2565 81.4476 11.5178V20.8236C81.4476 21.7383 81.7414 22.541 82.3198 23.2317C82.9074 23.9224 83.6327 24.3144 84.5049 24.4078C85.5149 24.5104 86.3871 24.2118 87.1307 23.5304C87.8928 22.8304 88.2692 21.981 88.2692 20.9636Z" fill="#00C0FF"/>
<path d="M114.261 10.7805L107.623 18.5275C107.486 18.6862 107.421 18.8915 107.43 19.1155C107.44 19.3489 107.504 19.5449 107.642 19.7035L114.729 27.6746C114.867 27.8332 114.904 27.9732 114.858 28.0853C114.812 28.1973 114.684 28.2533 114.472 28.2533H109.432C109.221 28.2533 108.991 28.1973 108.734 28.0853C108.477 27.9732 108.275 27.8332 108.147 27.6746L104.419 23.4744C104.281 23.3157 104.116 23.2317 103.905 23.2317C103.694 23.2317 103.519 23.3157 103.391 23.4744L102.482 24.5478C102.133 24.9491 101.968 25.4065 101.968 25.9198V27.4972C101.968 27.7119 101.894 27.8892 101.747 28.0386C101.6 28.1879 101.426 28.2626 101.215 28.2626H97.8544C97.6433 28.2626 97.4688 28.1879 97.3219 28.0386C97.175 27.8892 97.1016 27.7119 97.1016 27.4972V0.784035C97.1016 0.569359 97.175 0.382684 97.3219 0.233344C97.4688 0.07467 97.6433 0 97.8544 0H101.215C101.426 0 101.6 0.07467 101.747 0.233344C101.894 0.392017 101.968 0.578693 101.968 0.784035V16.8007C101.968 17.0154 102.023 17.1368 102.124 17.1741C102.225 17.2114 102.344 17.1461 102.482 16.9874L107.798 10.7805C107.935 10.6218 108.128 10.4818 108.376 10.3605C108.624 10.2391 108.863 10.1831 109.065 10.1831H114.004C114.215 10.1831 114.344 10.2391 114.39 10.3605C114.436 10.4818 114.399 10.6218 114.261 10.7805Z" fill="#00C0FF"/>
<path d="M129.3 15.2047C129.144 15.3634 128.942 15.4567 128.722 15.4754C128.492 15.4941 128.29 15.4381 128.107 15.2981C127.225 14.6634 126.197 14.3927 125.04 14.486C123.883 14.5794 122.919 15.018 122.148 15.8114C121.239 16.7354 120.78 17.8462 120.78 19.1529C120.78 20.4503 121.239 21.5703 122.148 22.4944C122.919 23.2784 123.892 23.7264 125.04 23.8198C126.197 23.9131 127.216 23.6424 128.107 23.0077C128.29 22.8677 128.501 22.8117 128.722 22.8304C128.951 22.8491 129.144 22.9424 129.3 23.1011L131.458 25.2945C131.65 25.4905 131.751 25.7332 131.733 26.0132C131.724 26.2932 131.614 26.5266 131.403 26.6946C129.677 28.1226 127.684 28.832 125.426 28.832C124.159 28.832 122.947 28.5893 121.781 28.104C120.615 27.6186 119.586 26.9186 118.687 26.0039C116.832 24.1184 115.896 21.8317 115.896 19.1622C115.896 16.5114 116.823 14.2247 118.687 12.3206C119.779 11.2099 121.092 10.4258 122.616 9.97781C124.14 9.52979 125.683 9.44579 127.234 9.73514C128.795 10.0245 130.172 10.6498 131.375 11.6299C131.586 11.8072 131.696 12.0312 131.715 12.3113C131.733 12.5913 131.641 12.8339 131.448 13.03L129.3 15.2047Z" fill="#52FFA8"/>
<path d="M144.578 9.71643C146.542 10.0805 148.167 11.0232 149.453 12.5446C150.729 14.066 151.372 15.8394 151.372 17.8555V27.3106C151.372 27.5719 151.28 27.7959 151.087 27.9826C150.894 28.1693 150.674 28.2626 150.417 28.2626H147.442C147.185 28.2626 146.956 28.1693 146.772 27.9826C146.579 27.7959 146.487 27.5719 146.487 27.3106V17.8928C146.487 16.8754 146.111 16.026 145.367 15.3353C144.624 14.6447 143.742 14.346 142.741 14.4486C141.869 14.5326 141.135 14.934 140.556 15.634C139.969 16.3341 139.684 17.1368 139.684 18.0515V27.3199C139.684 27.5812 139.592 27.8146 139.409 28.0012C139.225 28.1973 139.005 28.2906 138.748 28.2906H135.764C135.507 28.2906 135.286 28.1973 135.103 28.0012C134.919 27.8052 134.827 27.5812 134.827 27.3199V0.970711C134.827 0.709366 134.919 0.476023 135.103 0.289348C135.286 0.0933388 135.507 0 135.764 0H138.748C139.005 0 139.225 0.0933388 139.409 0.289348C139.592 0.485356 139.684 0.709366 139.684 0.970711V11.1352C140.217 10.5938 140.896 10.1738 141.722 9.86578C142.539 9.5671 143.494 9.51109 144.578 9.71643Z" fill="#52FFA8"/>
<path d="M163.261 9.46436C165.483 9.46436 167.393 10.2671 168.972 11.8818C170.551 13.4965 171.341 15.438 171.341 17.7154V27.3198C171.341 27.5812 171.249 27.8052 171.075 27.9825C170.9 28.1598 170.68 28.2532 170.423 28.2532H168.357C167.825 28.2532 167.384 28.0665 167.017 27.6932C166.649 27.3198 166.475 26.8625 166.475 26.3211C166.126 26.9745 165.437 27.5532 164.391 28.0572C163.344 28.5612 162.389 28.8132 161.517 28.8132C159.378 28.8132 157.633 28.2905 156.293 27.2451C154.952 26.1998 154.282 24.781 154.282 22.9796C154.282 20.9075 155.026 19.2461 156.504 17.9954C157.982 16.754 159.975 16.1287 162.472 16.1287C163.711 16.1287 164.978 16.306 166.273 16.67C166.053 16.0073 165.593 15.4099 164.905 14.8779C164.216 14.3459 163.519 14.0846 162.821 14.0846C161.636 14.0846 160.599 14.3272 159.699 14.8126C159.479 14.9246 159.249 14.9526 159.02 14.8873C158.79 14.8219 158.597 14.6912 158.469 14.4766L157.009 12.1711C156.862 11.9378 156.816 11.6765 156.89 11.4151C156.954 11.1444 157.11 10.9391 157.358 10.8084C158.377 10.2577 159.35 9.8937 160.278 9.71636C161.214 9.55769 162.206 9.46436 163.261 9.46436ZM161.508 24.3797C162.316 24.3797 163.151 24.1743 164.014 23.7637C164.877 23.353 165.529 22.6996 165.97 21.8129C164.942 21.3369 163.757 21.1035 162.426 21.1035C161.618 21.1035 160.911 21.2155 160.323 21.4395C159.828 21.6262 159.516 21.8502 159.369 22.0929C159.222 22.3449 159.148 22.6436 159.148 22.989C159.148 23.3063 159.249 23.5583 159.46 23.7637C159.672 23.969 159.938 24.109 160.25 24.1837C160.571 24.2583 160.819 24.305 161.003 24.333C161.196 24.3704 161.361 24.3797 161.508 24.3797Z" fill="#52FFA8"/>
</svg>
