<svg width="75" height="76" viewBox="0 0 75 76" fill="none" xmlns="http://www.w3.org/2000/svg">
<rect width="55.3863" height="36.7298" rx="5" transform="matrix(0.707884 -0.706329 0.707884 0.706329 2.06445 41.1802)" fill="#3DCE85"/>
<rect width="55.3863" height="36.7298" rx="5" transform="matrix(0.707884 -0.706329 0.707884 0.706329 0 39.1211)" fill="#52FFA8"/>
<rect width="11.0773" height="4.66411" rx="2.33205" transform="matrix(0.707884 -0.706329 0.707884 0.706329 31.3672 16.0605)" fill="#0286B2"/>
<rect width="25.9441" height="1.45753" rx="0.728767" transform="matrix(0.707884 -0.706329 0.707884 0.706329 8.25391 39.1211)" fill="#0286B2"/>
<rect width="25.9441" height="1.45753" rx="0.728767" transform="matrix(0.707884 -0.706329 0.707884 0.706329 11.5547 42.4155)" fill="#0286B2"/>
<rect width="25.9441" height="1.45753" rx="0.728767" transform="matrix(0.707884 -0.706329 0.707884 0.706329 14.8574 45.71)" fill="#0286B2"/>
<rect x="19.5508" y="39.3105" width="55.4471" height="36.6894" rx="5" fill="#05A4D8"/>
<rect x="19.5508" y="49.2109" width="55.4471" height="6.98846" fill="#056B8C"/>
<rect x="16.6348" y="39.3101" width="55.4471" height="36.6894" rx="5" fill="#00C0FF"/>
<rect x="16.6348" y="49.2104" width="55.4471" height="6.98846" fill="#0286B2"/>
<rect x="55.4473" y="62.314" width="13.7159" height="4.95016" rx="1" fill="#EFF0F3"/>
<rect x="28.0156" y="62.314" width="25.9726" height="4.95016" rx="1" fill="#EFF0F3"/>
<rect x="19.5547" y="70.1758" width="11.6731" height="2.91186" rx="1.45593" fill="#0286B2"/>
</svg>
