<svg width="64" height="64" viewBox="0 0 64 64" fill="none" xmlns="http://www.w3.org/2000/svg">
<path d="M60.833 31.8335C60.833 15.8172 47.8493 2.8335 31.833 2.8335C15.8167 2.8335 2.83301 15.8172 2.83301 31.8335C2.83301 47.8498 15.8167 60.8335 31.833 60.8335C47.8493 60.8335 60.833 47.8498 60.833 31.8335Z" stroke="#FF5252" stroke-width="5"/>
<path d="M40.6369 20.577C41.4062 19.8077 42.6536 19.8077 43.423 20.577C44.1923 21.3464 44.1923 22.5938 43.423 23.3631L23.3631 43.423C22.5938 44.1923 21.3464 44.1923 20.577 43.423C19.8077 42.6536 19.8077 41.4062 20.577 40.6369L40.6369 20.577Z" fill="#FF5252"/>
<path d="M43.423 40.6369C44.1923 41.4062 44.1923 42.6536 43.423 43.423C42.6536 44.1923 41.4062 44.1923 40.6369 43.423L20.577 23.3631C19.8077 22.5938 19.8077 21.3464 20.577 20.577C21.3464 19.8077 22.5938 19.8077 23.3631 20.577L43.423 40.6369Z" fill="#FF5252"/>
</svg>
