
<svg width="61" height="46" viewBox="0 0 61 46" fill="none" xmlns="http://www.w3.org/2000/svg">
<path d="M28.1846 9.88335L25.7774 4.4297C25.6174 4.06731 25.2587 3.8335 24.8625 3.8335H21.09C20.6939 3.8335 20.3351 4.06731 20.1752 4.4297L17.768 9.88335C17.1545 11.2732 15.7145 12.1086 14.2034 11.9512L7.83184 11.2874C7.44087 11.2467 7.0623 11.4388 6.86432 11.7784L5.12458 14.7626C4.92274 15.1088 4.94709 15.5421 5.18645 15.8635L8.95208 20.9201C9.87224 22.1557 9.87626 23.8476 8.96199 25.0876L5.18191 30.2143C4.9451 30.5355 4.9219 30.9667 5.12287 31.3115L6.86148 34.2936C7.06091 34.6357 7.44338 34.8278 7.83687 34.7837L14.1844 34.0716C15.7044 33.901 17.159 34.7372 17.7766 36.1364L20.1752 41.5706C20.3351 41.933 20.6939 42.1668 21.09 42.1668H24.8625C25.2587 42.1668 25.6174 41.933 25.7774 41.5706L28.176 36.1364C28.7936 34.7372 30.2482 33.901 31.7681 34.0716L38.1218 34.7844C38.5121 34.8282 38.892 34.6393 39.0928 34.3017L40.8716 31.3099C41.076 30.9662 41.056 30.5339 40.8208 30.2106L37.0811 25.0692C36.1848 23.8369 36.1888 22.1663 37.0909 20.9383L40.8163 15.8673C41.054 15.5437 41.0751 15.1093 40.8699 14.7642L39.0899 11.7704C38.8906 11.4352 38.5146 11.2464 38.1268 11.2868L31.7492 11.9512C30.2381 12.1086 28.798 11.2732 28.1846 9.88335Z" fill="#0880FF"/>
<path d="M30.0002 22.8657C30.0002 26.7705 26.8764 29.9998 23.0113 29.9998C19.1461 29.9998 16.0002 26.7705 16.0002 22.8657C16.0002 18.9609 19.1461 15.9997 23.0113 15.9997C26.8764 15.9997 30.0002 18.9609 30.0002 22.8657Z" fill="white"/>
<path d="M44.3549 16.2367L43.6937 15.8178C43.3591 15.6058 42.9309 15.6113 42.6018 15.8318L41.8512 16.3347C41.5222 16.5552 41.3543 16.9492 41.4231 17.3393L41.5592 18.1101C41.8232 19.6062 41.0919 21.1019 39.749 21.8122L38.8832 22.2702C38.5357 22.454 38.3282 22.8244 38.3527 23.2167L38.4004 23.9785C38.4255 24.3785 38.6869 24.7249 39.0647 24.8587L39.9147 25.1597C41.3669 25.6739 42.3121 27.0773 42.2428 28.6163L42.2009 29.5473C42.183 29.9459 42.4038 30.317 42.7626 30.4915L43.4471 30.8244C43.8031 30.9975 44.2279 30.9443 44.5302 30.6886L45.2602 30.0711C46.428 29.0833 48.1018 28.9682 49.3938 29.7868L50.037 30.1944C50.3716 30.4064 50.7998 30.4009 51.1289 30.1804L51.8795 29.6774C52.2086 29.4569 52.3765 29.063 52.3076 28.6729L52.1753 27.923C51.9095 26.4168 52.6524 24.9124 54.01 24.208L54.8641 23.7648C55.2128 23.5839 55.4233 23.2155 55.4021 22.8233L55.3603 22.0482C55.3387 21.649 55.0815 21.301 54.7061 21.1633L53.8183 20.8377C52.3877 20.3129 51.4611 18.9229 51.5269 17.4005L51.5665 16.486C51.5839 16.0849 51.3596 15.7122 50.997 15.5398L50.2941 15.2054C49.9419 15.0378 49.5245 15.0903 49.2248 15.3398L48.4673 15.9703C47.2996 16.9422 45.6383 17.0499 44.3549 16.2367Z" fill="#0880FF"/>
<path d="M49.3697 21.2575C50.3148 22.6679 49.9681 24.5903 48.572 25.5258C47.1759 26.4612 45.2581 26.0562 44.313 24.6458C43.368 23.2354 43.7875 21.4045 45.1836 20.4691C46.5797 19.5336 48.4247 19.8471 49.3697 21.2575Z" fill="white"/>
</svg>
