<svg width="57" height="55" viewBox="0 0 57 55" fill="none" xmlns="http://www.w3.org/2000/svg">
<circle cx="32" cy="23" r="14.5" fill="#52FFA8" stroke="#29AA69"/>
<path d="M32.2495 15.5V21.6364L26.7949 23.6818V29.8182" stroke="#29AA69" stroke-width="0.5" stroke-linecap="round" stroke-linejoin="round"/>
<path d="M37.7045 15.5V21.6364L32.25 23.6818V29.8182" stroke="#29AA69" stroke-width="0.5" stroke-linecap="round" stroke-linejoin="round"/>
<circle cx="32.2504" cy="14.8182" r="1.36364" fill="#29AA69"/>
<circle cx="22.7054" cy="17.5453" r="1.36364" fill="#29AA69"/>
<circle cx="41.7946" cy="28.4547" r="1.36364" transform="rotate(-180 41.7946 28.4547)" fill="#29AA69"/>
<circle cx="37.7054" cy="14.8182" r="1.36364" fill="#29AA69"/>
<circle cx="26.7953" cy="29.8182" r="1.36364" fill="#29AA69"/>
<circle cx="32.2504" cy="29.8182" r="1.36364" fill="#29AA69"/>
<path d="M28.1596 17.5454H22.7051" stroke="#29AA69" stroke-width="0.5" stroke-linecap="round"/>
<path d="M36.3404 28.4546L41.7949 28.4546" stroke="#29AA69" stroke-width="0.5" stroke-linecap="round"/>
<circle cx="20" cy="15" r="14.5" fill="#52FFA8" stroke="#29AA69"/>
<path d="M19.9995 7.5V13.6364L14.5449 15.6818V21.8182" stroke="#29AA69" stroke-width="0.5" stroke-linecap="round" stroke-linejoin="round"/>
<path d="M25.4545 7.5V13.6364L20 15.6818V21.8182" stroke="#29AA69" stroke-width="0.5" stroke-linecap="round" stroke-linejoin="round"/>
<circle cx="20.0004" cy="6.81823" r="1.36364" fill="#29AA69"/>
<circle cx="10.4554" cy="9.54528" r="1.36364" fill="#29AA69"/>
<circle cx="29.5446" cy="20.4547" r="1.36364" transform="rotate(-180 29.5446 20.4547)" fill="#29AA69"/>
<circle cx="25.4554" cy="6.81823" r="1.36364" fill="#29AA69"/>
<circle cx="14.5453" cy="21.8182" r="1.36364" fill="#29AA69"/>
<circle cx="20.0004" cy="21.8182" r="1.36364" fill="#29AA69"/>
<path d="M15.9096 9.54541H10.4551" stroke="#29AA69" stroke-width="0.5" stroke-linecap="round"/>
<path d="M24.0904 20.4546L29.5449 20.4546" stroke="#29AA69" stroke-width="0.5" stroke-linecap="round"/>
<path d="M54.0082 27.5418V42.0082C55.1276 41.8836 56 40.9319 56 39.7796V49.0195C56 52.3214 53.3158 55 50.0003 55H8.99971C5.68721 55 3 52.3214 3 49.0195V20.9805C3 17.6786 5.68721 15 8.99971 15H50.0003C53.3158 15 56 17.6786 56 20.9805V29.7674C56 28.6151 55.1276 27.6665 54.0082 27.5418Z" fill="#0286B2"/>
<path d="M54 20.9805V49.0195C54 52.3214 51.2657 55 47.8874 55H6.11257C2.73738 55 0 52.3214 0 49.0195V20.9805C0 17.6786 2.73738 15 6.11257 15H47.8874C51.2657 15 54 17.6786 54 20.9805Z" fill="#00C0FF"/>
<path d="M57.0007 29.4919V40.031C57.0007 41.244 56.0966 42.2457 54.9365 42.377V27.1492C56.0966 27.2804 57.0007 28.2789 57.0007 29.4919Z" fill="#29AA69"/>
<path d="M54.9343 27.1491V42.3769C54.8458 42.3897 54.7541 42.3961 54.6624 42.3961H41.9961C37.8551 42.3961 34.498 38.9972 34.498 34.8046V34.7182C34.498 30.5256 37.8551 27.1299 41.9961 27.1299H54.6624C54.7541 27.1299 54.8458 27.1363 54.9343 27.1491Z" fill="#52FFA8"/>
<path d="M41.5952 38.6742C43.7286 38.6742 45.458 36.9232 45.458 34.7633C45.458 32.6033 43.7286 30.8523 41.5952 30.8523C39.4619 30.8523 37.7324 32.6033 37.7324 34.7633C37.7324 36.9232 39.4619 38.6742 41.5952 38.6742Z" fill="#0286B2"/>
<path d="M7.09283 26.3462H17.8341C18.5264 26.3462 19.089 25.7765 19.089 25.0756V24.7747C19.089 24.0738 18.5264 23.5042 17.8341 23.5042H7.09283C6.40056 23.5042 5.83789 24.0738 5.83789 24.7747V25.0756C5.83789 25.7765 6.40056 26.3462 7.09283 26.3462Z" fill="#0286B2"/>
<path d="M7.2414 30.7915H21.011C21.7854 30.7915 22.4145 30.1546 22.4145 29.3705C22.4145 28.5864 21.7854 27.9495 21.011 27.9495H7.2414C6.46694 27.9495 5.83789 28.5864 5.83789 29.3705C5.83789 30.1546 6.46694 30.7915 7.2414 30.7915Z" fill="#0286B2"/>
</svg>
