<svg width="296" height="127" viewBox="0 0 296 127" fill="none" xmlns="http://www.w3.org/2000/svg">
    <path
        d="M31.8174 99H28.7236L24.0654 92.4873V99H21.3408V86.1504H24.0654V92.373L28.6709 86.1504H31.5713L26.8867 92.3203L31.8174 99ZM41.8896 99.1758C38.8311 99.1758 37.3018 97.4971 37.3018 94.1396C37.3018 92.4697 37.7178 91.1953 38.5498 90.3164C39.3818 89.4316 40.5742 88.9893 42.127 88.9893C43.2637 88.9893 44.2832 89.2119 45.1855 89.6572L44.3945 91.7314C43.9727 91.5615 43.5801 91.4238 43.2168 91.3184C42.8535 91.207 42.4902 91.1514 42.127 91.1514C40.7324 91.1514 40.0352 92.1416 40.0352 94.1221C40.0352 96.0439 40.7324 97.0049 42.127 97.0049C42.6426 97.0049 43.1201 96.9375 43.5596 96.8027C43.999 96.6621 44.4385 96.4453 44.8779 96.1523V98.4463C44.4443 98.7217 44.0049 98.9121 43.5596 99.0176C43.1201 99.123 42.5635 99.1758 41.8896 99.1758ZM49.2988 94.0693C49.2988 95.042 49.457 95.7773 49.7734 96.2754C50.0957 96.7734 50.6172 97.0225 51.3379 97.0225C52.0527 97.0225 52.5654 96.7764 52.876 96.2842C53.1924 95.7861 53.3506 95.0479 53.3506 94.0693C53.3506 93.0967 53.1924 92.3672 52.876 91.8809C52.5596 91.3945 52.041 91.1514 51.3203 91.1514C50.6055 91.1514 50.0898 91.3945 49.7734 91.8809C49.457 92.3613 49.2988 93.0908 49.2988 94.0693ZM56.0928 94.0693C56.0928 95.6689 55.6709 96.9199 54.8271 97.8223C53.9834 98.7246 52.8086 99.1758 51.3027 99.1758C50.3594 99.1758 49.5273 98.9707 48.8066 98.5605C48.0859 98.1445 47.5322 97.5498 47.1455 96.7764C46.7588 96.0029 46.5654 95.1006 46.5654 94.0693C46.5654 92.4639 46.9844 91.2158 47.8223 90.3252C48.6602 89.4346 49.8379 88.9893 51.3555 88.9893C52.2988 88.9893 53.1309 89.1943 53.8516 89.6045C54.5723 90.0146 55.126 90.6035 55.5127 91.3711C55.8994 92.1387 56.0928 93.0381 56.0928 94.0693ZM63.5107 93.9463V89.1738H66.0068V93.9463L69.5049 89.1738H72.2734L68.6523 93.8848L72.6162 99H69.751L66.0068 94.0166V99H63.5107V94.0166L59.7666 99H56.9014L60.8652 93.8848L57.2441 89.1738H60.0127L63.5107 93.9463ZM80.2627 99L79.7441 97.6641H79.6738C79.2227 98.2324 78.7568 98.6279 78.2764 98.8506C77.8018 99.0674 77.1807 99.1758 76.4131 99.1758C75.4697 99.1758 74.7256 98.9062 74.1807 98.3672C73.6416 97.8281 73.3721 97.0605 73.3721 96.0645C73.3721 95.0215 73.7354 94.2539 74.4619 93.7617C75.1943 93.2637 76.2959 92.9883 77.7666 92.9355L79.4717 92.8828V92.4521C79.4717 91.4561 78.9619 90.958 77.9424 90.958C77.1572 90.958 76.2344 91.1953 75.1738 91.6699L74.2861 89.8594C75.417 89.2676 76.6709 88.9717 78.0479 88.9717C79.3662 88.9717 80.377 89.2588 81.0801 89.833C81.7832 90.4072 82.1348 91.2803 82.1348 92.4521V99H80.2627ZM79.4717 94.4473L78.4346 94.4824C77.6553 94.5059 77.0752 94.6465 76.6943 94.9043C76.3135 95.1621 76.123 95.5547 76.123 96.082C76.123 96.8379 76.5566 97.2158 77.4238 97.2158C78.0449 97.2158 78.54 97.0371 78.9092 96.6797C79.2842 96.3223 79.4717 95.8477 79.4717 95.2559V94.4473ZM93.7012 99H91.0205V91.1865H88.5508C88.3633 93.3838 88.1348 95.0244 87.8652 96.1084C87.5957 97.1865 87.2354 97.9688 86.7842 98.4551C86.3389 98.9355 85.7529 99.1758 85.0264 99.1758C84.4053 99.1758 83.8955 99.082 83.4971 98.8945V96.75C83.7842 96.8672 84.0713 96.9258 84.3584 96.9258C84.6924 96.9258 84.9707 96.6855 85.1934 96.2051C85.4219 95.7246 85.624 94.9248 85.7998 93.8057C85.9814 92.6807 86.1367 91.1367 86.2656 89.1738H93.7012V99ZM100.592 90.8965C100.023 90.8965 99.5781 91.0781 99.2559 91.4414C98.9336 91.7988 98.749 92.3086 98.7021 92.9707H102.464C102.452 92.3086 102.279 91.7988 101.945 91.4414C101.611 91.0781 101.16 90.8965 100.592 90.8965ZM100.97 99.1758C99.3877 99.1758 98.1514 98.7393 97.2607 97.8662C96.3701 96.9932 95.9248 95.7568 95.9248 94.1572C95.9248 92.5107 96.335 91.2393 97.1553 90.3428C97.9814 89.4404 99.1211 88.9893 100.574 88.9893C101.963 88.9893 103.044 89.3848 103.817 90.1758C104.591 90.9668 104.978 92.0596 104.978 93.4541V94.7549H98.6406C98.6699 95.5166 98.8955 96.1113 99.3174 96.5391C99.7393 96.9668 100.331 97.1807 101.093 97.1807C101.685 97.1807 102.244 97.1191 102.771 96.9961C103.299 96.873 103.85 96.6768 104.424 96.4072V98.4814C103.955 98.7158 103.454 98.8887 102.921 99C102.388 99.1172 101.737 99.1758 100.97 99.1758ZM109.838 89.1738V92.9531H113.582V89.1738H116.263V99H113.582V94.9482H109.838V99H107.157V89.1738H109.838ZM121.668 89.1738V93.0586C121.668 93.4688 121.601 94.4707 121.466 96.0645L126.001 89.1738H129.227V99H126.634V95.0801C126.634 94.3828 126.692 93.3984 126.81 92.127L122.292 99H119.075V89.1738H121.668ZM136.117 90.8965C135.549 90.8965 135.104 91.0781 134.781 91.4414C134.459 91.7988 134.274 92.3086 134.228 92.9707H137.989C137.978 92.3086 137.805 91.7988 137.471 91.4414C137.137 91.0781 136.686 90.8965 136.117 90.8965ZM136.495 99.1758C134.913 99.1758 133.677 98.7393 132.786 97.8662C131.896 96.9932 131.45 95.7568 131.45 94.1572C131.45 92.5107 131.86 91.2393 132.681 90.3428C133.507 89.4404 134.646 88.9893 136.1 88.9893C137.488 88.9893 138.569 89.3848 139.343 90.1758C140.116 90.9668 140.503 92.0596 140.503 93.4541V94.7549H134.166C134.195 95.5166 134.421 96.1113 134.843 96.5391C135.265 96.9668 135.856 97.1807 136.618 97.1807C137.21 97.1807 137.77 97.1191 138.297 96.9961C138.824 96.873 139.375 96.6768 139.949 96.4072V98.4814C139.48 98.7158 138.979 98.8887 138.446 99C137.913 99.1172 137.263 99.1758 136.495 99.1758ZM159.742 99H157.237V91.2568L157.097 91.8018C156.78 93.0381 156.496 93.9727 156.244 94.6055L154.504 99H152.597L150.83 94.5703C150.578 93.9258 150.309 93.0205 150.021 91.8545L149.854 91.2568V99H147.358V89.1738H151.05L152.737 93.3662C152.913 93.8174 153.074 94.3359 153.221 94.9219C153.373 95.5078 153.476 96.0088 153.528 96.4248C153.722 95.5459 153.871 94.916 153.977 94.5352C154.088 94.1484 154.208 93.7939 154.337 93.4717C154.466 93.1494 155.049 91.7168 156.086 89.1738H159.742V99ZM165.244 92.9707H166.536C168.036 92.9707 169.146 93.2109 169.867 93.6914C170.588 94.1719 170.948 94.8984 170.948 95.8711C170.948 96.9082 170.588 97.6904 169.867 98.2178C169.146 98.7393 168.068 99 166.633 99H162.563V89.1738H165.244V92.9707ZM168.268 95.9062C168.268 95.5254 168.115 95.25 167.811 95.0801C167.506 94.9102 167.052 94.8252 166.448 94.8252H165.244V97.1455H166.483C167.673 97.1455 168.268 96.7324 168.268 95.9062ZM175.053 99H172.372V89.1738H175.053V99ZM185.23 89.1738V92.9531H188.975V89.1738H191.655V99H188.975V94.9482H185.23V99H182.55V89.1738H185.23ZM198.537 90.8965C197.969 90.8965 197.523 91.0781 197.201 91.4414C196.879 91.7988 196.694 92.3086 196.647 92.9707H200.409C200.397 92.3086 200.225 91.7988 199.891 91.4414C199.557 91.0781 199.105 90.8965 198.537 90.8965ZM198.915 99.1758C197.333 99.1758 196.097 98.7393 195.206 97.8662C194.315 96.9932 193.87 95.7568 193.87 94.1572C193.87 92.5107 194.28 91.2393 195.101 90.3428C195.927 89.4404 197.066 88.9893 198.52 88.9893C199.908 88.9893 200.989 89.3848 201.763 90.1758C202.536 90.9668 202.923 92.0596 202.923 93.4541V94.7549H196.586C196.615 95.5166 196.841 96.1113 197.263 96.5391C197.685 96.9668 198.276 97.1807 199.038 97.1807C199.63 97.1807 200.189 97.1191 200.717 96.9961C201.244 96.873 201.795 96.6768 202.369 96.4072V98.4814C201.9 98.7158 201.399 98.8887 200.866 99C200.333 99.1172 199.683 99.1758 198.915 99.1758ZM222.162 99H219.657V91.2568L219.517 91.8018C219.2 93.0381 218.916 93.9727 218.664 94.6055L216.924 99H215.017L213.25 94.5703C212.998 93.9258 212.729 93.0205 212.441 91.8545L212.274 91.2568V99H209.778V89.1738H213.47L215.157 93.3662C215.333 93.8174 215.494 94.3359 215.641 94.9219C215.793 95.5078 215.896 96.0088 215.948 96.4248C216.142 95.5459 216.291 94.916 216.396 94.5352C216.508 94.1484 216.628 93.7939 216.757 93.4717C216.886 93.1494 217.469 91.7168 218.506 89.1738H222.162V99ZM227.119 94.0693C227.119 95.042 227.277 95.7773 227.594 96.2754C227.916 96.7734 228.438 97.0225 229.158 97.0225C229.873 97.0225 230.386 96.7764 230.696 96.2842C231.013 95.7861 231.171 95.0479 231.171 94.0693C231.171 93.0967 231.013 92.3672 230.696 91.8809C230.38 91.3945 229.861 91.1514 229.141 91.1514C228.426 91.1514 227.91 91.3945 227.594 91.8809C227.277 92.3613 227.119 93.0908 227.119 94.0693ZM233.913 94.0693C233.913 95.6689 233.491 96.9199 232.647 97.8223C231.804 98.7246 230.629 99.1758 229.123 99.1758C228.18 99.1758 227.348 98.9707 226.627 98.5605C225.906 98.1445 225.353 97.5498 224.966 96.7764C224.579 96.0029 224.386 95.1006 224.386 94.0693C224.386 92.4639 224.805 91.2158 225.643 90.3252C226.48 89.4346 227.658 88.9893 229.176 88.9893C230.119 88.9893 230.951 89.1943 231.672 89.6045C232.393 90.0146 232.946 90.6035 233.333 91.3711C233.72 92.1387 233.913 93.0381 233.913 94.0693ZM241.331 93.9463V89.1738H243.827V93.9463L247.325 89.1738H250.094L246.473 93.8848L250.437 99H247.571L243.827 94.0166V99H241.331V94.0166L237.587 99H234.722L238.686 93.8848L235.064 89.1738H237.833L241.331 93.9463ZM255.912 90.8965C255.344 90.8965 254.898 91.0781 254.576 91.4414C254.254 91.7988 254.069 92.3086 254.022 92.9707H257.784C257.772 92.3086 257.6 91.7988 257.266 91.4414C256.932 91.0781 256.48 90.8965 255.912 90.8965ZM256.29 99.1758C254.708 99.1758 253.472 98.7393 252.581 97.8662C251.69 96.9932 251.245 95.7568 251.245 94.1572C251.245 92.5107 251.655 91.2393 252.476 90.3428C253.302 89.4404 254.441 88.9893 255.895 88.9893C257.283 88.9893 258.364 89.3848 259.138 90.1758C259.911 90.9668 260.298 92.0596 260.298 93.4541V94.7549H253.961C253.99 95.5166 254.216 96.1113 254.638 96.5391C255.06 96.9668 255.651 97.1807 256.413 97.1807C257.005 97.1807 257.564 97.1191 258.092 96.9961C258.619 96.873 259.17 96.6768 259.744 96.4072V98.4814C259.275 98.7158 258.774 98.8887 258.241 99C257.708 99.1172 257.058 99.1758 256.29 99.1758ZM274.861 99H272.356V91.2568L272.216 91.8018C271.899 93.0381 271.615 93.9727 271.363 94.6055L269.623 99H267.716L265.949 94.5703C265.697 93.9258 265.428 93.0205 265.141 91.8545L264.974 91.2568V99H262.478V89.1738H266.169L267.856 93.3662C268.032 93.8174 268.193 94.3359 268.34 94.9219C268.492 95.5078 268.595 96.0088 268.647 96.4248C268.841 95.5459 268.99 94.916 269.096 94.5352C269.207 94.1484 269.327 93.7939 269.456 93.4717C269.585 93.1494 270.168 91.7168 271.205 89.1738H274.861V99ZM17.6934 117.069C17.6934 118.042 17.8516 118.777 18.168 119.275C18.4902 119.773 19.0117 120.022 19.7324 120.022C20.4473 120.022 20.96 119.776 21.2705 119.284C21.5869 118.786 21.7451 118.048 21.7451 117.069C21.7451 116.097 21.5869 115.367 21.2705 114.881C20.9541 114.395 20.4355 114.151 19.7148 114.151C19 114.151 18.4844 114.395 18.168 114.881C17.8516 115.361 17.6934 116.091 17.6934 117.069ZM24.4873 117.069C24.4873 118.669 24.0654 119.92 23.2217 120.822C22.3779 121.725 21.2031 122.176 19.6973 122.176C18.7539 122.176 17.9219 121.971 17.2012 121.561C16.4805 121.145 15.9268 120.55 15.54 119.776C15.1533 119.003 14.96 118.101 14.96 117.069C14.96 115.464 15.3789 114.216 16.2168 113.325C17.0547 112.435 18.2324 111.989 19.75 111.989C20.6934 111.989 21.5254 112.194 22.2461 112.604C22.9668 113.015 23.5205 113.604 23.9072 114.371C24.2939 115.139 24.4873 116.038 24.4873 117.069ZM32.8545 120.04V114.187H30.8418C30.6953 115.276 30.4932 116.311 30.2354 117.289C29.9834 118.268 29.6318 119.185 29.1807 120.04H32.8545ZM36.9766 125.524H34.5684V122H27.959V125.524H25.5508V120.04H26.377C26.9395 119.167 27.4111 118.065 27.792 116.735C28.1729 115.405 28.4395 113.885 28.5918 112.174H35.5352V120.04H36.9766V125.524ZM40.791 117.069C40.791 118.042 40.9492 118.777 41.2656 119.275C41.5879 119.773 42.1094 120.022 42.8301 120.022C43.5449 120.022 44.0576 119.776 44.3682 119.284C44.6846 118.786 44.8428 118.048 44.8428 117.069C44.8428 116.097 44.6846 115.367 44.3682 114.881C44.0518 114.395 43.5332 114.151 42.8125 114.151C42.0977 114.151 41.582 114.395 41.2656 114.881C40.9492 115.361 40.791 116.091 40.791 117.069ZM47.585 117.069C47.585 118.669 47.1631 119.92 46.3193 120.822C45.4756 121.725 44.3008 122.176 42.7949 122.176C41.8516 122.176 41.0195 121.971 40.2988 121.561C39.5781 121.145 39.0244 120.55 38.6377 119.776C38.251 119.003 38.0576 118.101 38.0576 117.069C38.0576 115.464 38.4766 114.216 39.3145 113.325C40.1523 112.435 41.3301 111.989 42.8477 111.989C43.791 111.989 44.623 112.194 45.3438 112.604C46.0645 113.015 46.6182 113.604 47.0049 114.371C47.3916 115.139 47.585 116.038 47.585 117.069ZM49.2021 116.111C49.2021 113.855 49.6299 112.145 50.4854 110.979C51.3467 109.807 52.6885 109.065 54.5107 108.755C55.3955 108.603 56.7168 108.409 58.4746 108.175L58.7822 110.513C58.0205 110.601 56.6699 110.788 54.7305 111.075C53.9922 111.192 53.4414 111.368 53.0781 111.603C52.7148 111.837 52.4424 112.171 52.2607 112.604C52.085 113.038 51.9766 113.615 51.9355 114.336H52.0674C52.3779 113.855 52.7881 113.486 53.2979 113.229C53.8076 112.971 54.3555 112.842 54.9414 112.842C56.1543 112.842 57.0977 113.214 57.7715 113.958C58.4453 114.696 58.7822 115.757 58.7822 117.14C58.7822 118.733 58.3545 119.973 57.499 120.857C56.6494 121.736 55.4746 122.176 53.9746 122.176C52.4746 122.176 51.3027 121.64 50.459 120.567C49.6211 119.489 49.2021 118.004 49.2021 116.111ZM54.1328 120.005C55.4043 120.005 56.04 119.129 56.04 117.377C56.04 115.672 55.4658 114.819 54.3174 114.819C54.001 114.819 53.6846 114.893 53.3682 115.039C53.0576 115.186 52.7705 115.379 52.5068 115.619C52.249 115.854 52.0586 116.091 51.9355 116.331C51.9355 117.521 52.126 118.432 52.5068 119.064C52.8877 119.691 53.4297 120.005 54.1328 120.005ZM66.3936 122.176C65.2393 122.176 64.334 121.757 63.6777 120.919H63.5371C63.6309 121.739 63.6777 122.214 63.6777 122.343V126.324H60.9971V112.174H63.1768L63.5547 113.448H63.6777C64.3047 112.476 65.2334 111.989 66.4639 111.989C67.624 111.989 68.5322 112.438 69.1885 113.334C69.8447 114.23 70.1729 115.476 70.1729 117.069C70.1729 118.118 70.0176 119.029 69.707 119.803C69.4023 120.576 68.9658 121.165 68.3975 121.569C67.8291 121.974 67.1611 122.176 66.3936 122.176ZM65.6025 114.134C64.9404 114.134 64.457 114.339 64.1523 114.749C63.8477 115.153 63.6895 115.824 63.6777 116.762V117.052C63.6777 118.106 63.833 118.862 64.1436 119.319C64.46 119.776 64.958 120.005 65.6377 120.005C66.8389 120.005 67.4395 119.015 67.4395 117.034C67.4395 116.067 67.29 115.344 66.9912 114.863C66.6982 114.377 66.2354 114.134 65.6025 114.134ZM74.9805 112.174V116.059C74.9805 116.469 74.9131 117.471 74.7783 119.064L79.3135 112.174H82.5391V122H79.9463V118.08C79.9463 117.383 80.0049 116.398 80.1221 115.127L75.6045 122H72.3877V112.174H74.9805ZM93.4902 112.174V114.187H90.2734V122H87.5928V114.187H84.3672V112.174H93.4902ZM98.0078 115.971H99.8975C101.409 115.971 102.528 116.211 103.255 116.691C103.981 117.172 104.345 117.898 104.345 118.871C104.345 120.957 102.897 122 100.003 122H95.3271V112.174H98.0078V115.971ZM101.664 118.906C101.664 118.525 101.512 118.25 101.207 118.08C100.902 117.91 100.448 117.825 99.8447 117.825H98.0078V120.146H99.8799C101.069 120.146 101.664 119.732 101.664 118.906ZM120.13 114.749C120.13 115.276 119.963 115.728 119.629 116.103C119.301 116.472 118.814 116.709 118.17 116.814V116.885C118.867 116.967 119.418 117.207 119.822 117.605C120.232 117.998 120.438 118.484 120.438 119.064C120.438 120.02 120.062 120.749 119.312 121.253C118.562 121.751 117.49 122 116.096 122H111.06V112.174H116.096C117.443 112.174 118.451 112.394 119.119 112.833C119.793 113.267 120.13 113.905 120.13 114.749ZM117.66 118.924C117.66 118.537 117.511 118.259 117.212 118.089C116.913 117.913 116.465 117.825 115.867 117.825H113.74V120.146H115.92C116.488 120.146 116.919 120.04 117.212 119.829C117.511 119.612 117.66 119.311 117.66 118.924ZM117.414 114.96C117.414 114.362 116.939 114.063 115.99 114.063H113.74V116.006H115.683C116.251 116.006 116.682 115.924 116.975 115.76C117.268 115.596 117.414 115.329 117.414 114.96ZM128.813 122L128.295 120.664H128.225C127.773 121.232 127.308 121.628 126.827 121.851C126.353 122.067 125.731 122.176 124.964 122.176C124.021 122.176 123.276 121.906 122.731 121.367C122.192 120.828 121.923 120.061 121.923 119.064C121.923 118.021 122.286 117.254 123.013 116.762C123.745 116.264 124.847 115.988 126.317 115.936L128.022 115.883V115.452C128.022 114.456 127.513 113.958 126.493 113.958C125.708 113.958 124.785 114.195 123.725 114.67L122.837 112.859C123.968 112.268 125.222 111.972 126.599 111.972C127.917 111.972 128.928 112.259 129.631 112.833C130.334 113.407 130.686 114.28 130.686 115.452V122H128.813ZM128.022 117.447L126.985 117.482C126.206 117.506 125.626 117.646 125.245 117.904C124.864 118.162 124.674 118.555 124.674 119.082C124.674 119.838 125.107 120.216 125.975 120.216C126.596 120.216 127.091 120.037 127.46 119.68C127.835 119.322 128.022 118.848 128.022 118.256V117.447ZM145.838 122H143.333V114.257L143.192 114.802C142.876 116.038 142.592 116.973 142.34 117.605L140.6 122H138.692L136.926 117.57C136.674 116.926 136.404 116.021 136.117 114.854L135.95 114.257V122H133.454V112.174H137.146L138.833 116.366C139.009 116.817 139.17 117.336 139.316 117.922C139.469 118.508 139.571 119.009 139.624 119.425C139.817 118.546 139.967 117.916 140.072 117.535C140.184 117.148 140.304 116.794 140.433 116.472C140.562 116.149 141.145 114.717 142.182 112.174H145.838V122ZM165.719 122H163.214V114.257L163.073 114.802C162.757 116.038 162.473 116.973 162.221 117.605L160.48 122H158.573L156.807 117.57C156.555 116.926 156.285 116.021 155.998 114.854L155.831 114.257V122H153.335V112.174H157.026L158.714 116.366C158.89 116.817 159.051 117.336 159.197 117.922C159.35 118.508 159.452 119.009 159.505 119.425C159.698 118.546 159.848 117.916 159.953 117.535C160.064 117.148 160.185 116.794 160.313 116.472C160.442 116.149 161.025 114.717 162.062 112.174H165.719V122ZM171.133 112.174V116.059C171.133 116.469 171.065 117.471 170.931 119.064L175.466 112.174H178.691V122H176.099V118.08C176.099 117.383 176.157 116.398 176.274 115.127L171.757 122H168.54V112.174H171.133ZM187.955 112.174H190.908L187.015 116.885L191.251 122H188.21L184.193 117.017V122H181.513V112.174H184.193V116.946L187.955 112.174ZM198.054 122.176C196.899 122.176 195.994 121.757 195.338 120.919H195.197C195.291 121.739 195.338 122.214 195.338 122.343V126.324H192.657V112.174H194.837L195.215 113.448H195.338C195.965 112.476 196.894 111.989 198.124 111.989C199.284 111.989 200.192 112.438 200.849 113.334C201.505 114.23 201.833 115.476 201.833 117.069C201.833 118.118 201.678 119.029 201.367 119.803C201.062 120.576 200.626 121.165 200.058 121.569C199.489 121.974 198.821 122.176 198.054 122.176ZM197.263 114.134C196.601 114.134 196.117 114.339 195.812 114.749C195.508 115.153 195.35 115.824 195.338 116.762V117.052C195.338 118.106 195.493 118.862 195.804 119.319C196.12 119.776 196.618 120.005 197.298 120.005C198.499 120.005 199.1 119.015 199.1 117.034C199.1 116.067 198.95 115.344 198.651 114.863C198.358 114.377 197.896 114.134 197.263 114.134ZM206.184 117.069C206.184 118.042 206.342 118.777 206.658 119.275C206.98 119.773 207.502 120.022 208.223 120.022C208.938 120.022 209.45 119.776 209.761 119.284C210.077 118.786 210.235 118.048 210.235 117.069C210.235 116.097 210.077 115.367 209.761 114.881C209.444 114.395 208.926 114.151 208.205 114.151C207.49 114.151 206.975 114.395 206.658 114.881C206.342 115.361 206.184 116.091 206.184 117.069ZM212.978 117.069C212.978 118.669 212.556 119.92 211.712 120.822C210.868 121.725 209.693 122.176 208.188 122.176C207.244 122.176 206.412 121.971 205.691 121.561C204.971 121.145 204.417 120.55 204.03 119.776C203.644 119.003 203.45 118.101 203.45 117.069C203.45 115.464 203.869 114.216 204.707 113.325C205.545 112.435 206.723 111.989 208.24 111.989C209.184 111.989 210.016 112.194 210.736 112.604C211.457 113.015 212.011 113.604 212.397 114.371C212.784 115.139 212.978 116.038 212.978 117.069ZM221.635 112.174H224.588L220.694 116.885L224.931 122H221.89L217.873 117.017V122H215.192V112.174H217.873V116.946L221.635 112.174ZM231.733 122.176C230.579 122.176 229.674 121.757 229.018 120.919H228.877C228.971 121.739 229.018 122.214 229.018 122.343V126.324H226.337V112.174H228.517L228.895 113.448H229.018C229.645 112.476 230.573 111.989 231.804 111.989C232.964 111.989 233.872 112.438 234.528 113.334C235.185 114.23 235.513 115.476 235.513 117.069C235.513 118.118 235.357 119.029 235.047 119.803C234.742 120.576 234.306 121.165 233.737 121.569C233.169 121.974 232.501 122.176 231.733 122.176ZM230.942 114.134C230.28 114.134 229.797 114.339 229.492 114.749C229.188 115.153 229.029 115.824 229.018 116.762V117.052C229.018 118.106 229.173 118.862 229.483 119.319C229.8 119.776 230.298 120.005 230.978 120.005C232.179 120.005 232.779 119.015 232.779 117.034C232.779 116.067 232.63 115.344 232.331 114.863C232.038 114.377 231.575 114.134 230.942 114.134ZM241.797 113.896C241.229 113.896 240.783 114.078 240.461 114.441C240.139 114.799 239.954 115.309 239.907 115.971H243.669C243.657 115.309 243.484 114.799 243.15 114.441C242.816 114.078 242.365 113.896 241.797 113.896ZM242.175 122.176C240.593 122.176 239.356 121.739 238.466 120.866C237.575 119.993 237.13 118.757 237.13 117.157C237.13 115.511 237.54 114.239 238.36 113.343C239.187 112.44 240.326 111.989 241.779 111.989C243.168 111.989 244.249 112.385 245.022 113.176C245.796 113.967 246.183 115.06 246.183 116.454V117.755H239.846C239.875 118.517 240.101 119.111 240.522 119.539C240.944 119.967 241.536 120.181 242.298 120.181C242.89 120.181 243.449 120.119 243.977 119.996C244.504 119.873 245.055 119.677 245.629 119.407V121.481C245.16 121.716 244.659 121.889 244.126 122C243.593 122.117 242.942 122.176 242.175 122.176ZM254.515 120.04V114.187H252.502C252.355 115.276 252.153 116.311 251.896 117.289C251.644 118.268 251.292 119.185 250.841 120.04H254.515ZM258.637 125.524H256.229V122H249.619V125.524H247.211V120.04H248.037C248.6 119.167 249.071 118.065 249.452 116.735C249.833 115.405 250.1 113.885 250.252 112.174H257.195V120.04H258.637V125.524ZM262.908 112.174V116.059C262.908 116.469 262.841 117.471 262.706 119.064L267.241 112.174H270.467V122H267.874V118.08C267.874 117.383 267.933 116.398 268.05 115.127L263.532 122H260.315V112.174H262.908ZM281.418 112.174V114.187H278.201V122H275.521V114.187H272.295V112.174H281.418Z"
        fill="black" />
    <path
        d="M176.833 31.8335C176.833 15.8172 163.849 2.8335 147.833 2.8335C131.817 2.8335 118.833 15.8172 118.833 31.8335C118.833 47.8498 131.817 60.8335 147.833 60.8335C163.849 60.8335 176.833 47.8498 176.833 31.8335Z"
        stroke="#FF5252" stroke-width="5" />
    <path
        d="M156.637 20.577C157.406 19.8077 158.654 19.8077 159.423 20.577C160.192 21.3464 160.192 22.5938 159.423 23.3631L139.363 43.423C138.594 44.1923 137.346 44.1923 136.577 43.423C135.808 42.6536 135.808 41.4062 136.577 40.6369L156.637 20.577Z"
        fill="#FF5252" />
    <path
        d="M159.423 40.6369C160.192 41.4062 160.192 42.6536 159.423 43.423C158.654 44.1923 157.406 44.1923 156.637 43.423L136.577 23.3631C135.808 22.5938 135.808 21.3464 136.577 20.577C137.346 19.8077 138.594 19.8077 139.363 20.577L159.423 40.6369Z"
        fill="#FF5252" />
</svg>
