<svg width="296" height="106" viewBox="0 0 296 106" fill="none" xmlns="http://www.w3.org/2000/svg">
<path d="M35.9785 101L32.541 89.7988H32.4531C32.5768 92.0775 32.6387 93.5977 32.6387 94.3594V101H29.9336V86.7227H34.0547L37.4336 97.6406H37.4922L41.0762 86.7227H45.1973V101H42.375V94.2422C42.375 93.9232 42.3783 93.5553 42.3848 93.1387C42.3978 92.722 42.4434 91.6152 42.5215 89.8184H42.4336L38.752 101H35.9785ZM51.4473 90.082V94.3984C51.4473 94.8542 51.3724 95.9674 51.2227 97.7383L56.2617 90.082H59.8457V101H56.9648V96.6445C56.9648 95.8698 57.0299 94.776 57.1602 93.3633L52.1406 101H48.5664V90.082H51.4473ZM70.1387 90.082H73.4199L69.0938 95.3164L73.8008 101H70.4219L65.959 95.4629V101H62.9805V90.082H65.959V95.3848L70.1387 90.082ZM81.3594 101.195C80.0768 101.195 79.071 100.73 78.3418 99.7988H78.1855C78.2897 100.71 78.3418 101.238 78.3418 101.381V105.805H75.3633V90.082H77.7852L78.2051 91.498H78.3418C79.0384 90.4173 80.0703 89.877 81.4375 89.877C82.7266 89.877 83.7357 90.375 84.4648 91.3711C85.194 92.3672 85.5586 93.7507 85.5586 95.5215C85.5586 96.6868 85.3861 97.6992 85.041 98.5586C84.7025 99.418 84.2174 100.072 83.5859 100.521C82.9544 100.971 82.2122 101.195 81.3594 101.195ZM80.4805 92.2598C79.7448 92.2598 79.2077 92.4876 78.8691 92.9434C78.5306 93.3926 78.3548 94.138 78.3418 95.1797V95.502C78.3418 96.6738 78.5143 97.5137 78.8594 98.0215C79.2109 98.5293 79.7643 98.7832 80.5195 98.7832C81.8542 98.7832 82.5215 97.6829 82.5215 95.4824C82.5215 94.4082 82.3555 93.6042 82.0234 93.0703C81.6979 92.5299 81.1836 92.2598 80.4805 92.2598ZM90.3926 95.5215C90.3926 96.6022 90.5684 97.4193 90.9199 97.9727C91.278 98.526 91.8574 98.8027 92.6582 98.8027C93.4525 98.8027 94.0221 98.5293 94.3672 97.9824C94.7188 97.429 94.8945 96.6087 94.8945 95.5215C94.8945 94.4408 94.7188 93.6302 94.3672 93.0898C94.0156 92.5495 93.4395 92.2793 92.6387 92.2793C91.8444 92.2793 91.2715 92.5495 90.9199 93.0898C90.5684 93.6237 90.3926 94.4342 90.3926 95.5215ZM97.9414 95.5215C97.9414 97.2988 97.4727 98.6888 96.5352 99.6914C95.5977 100.694 94.2923 101.195 92.6191 101.195C91.571 101.195 90.6465 100.967 89.8457 100.512C89.0449 100.049 88.4297 99.3887 88 98.5293C87.5703 97.6699 87.3555 96.6673 87.3555 95.5215C87.3555 93.7376 87.821 92.3509 88.752 91.3613C89.6829 90.3717 90.9915 89.877 92.6777 89.877C93.7259 89.877 94.6504 90.1048 95.4512 90.5605C96.252 91.0163 96.8672 91.6706 97.2969 92.5234C97.7266 93.3763 97.9414 94.3757 97.9414 95.5215ZM107.561 90.082H110.842L106.516 95.3164L111.223 101H107.844L103.381 95.4629V101H100.402V90.082H103.381V95.3848L107.561 90.082ZM118.781 101.195C117.499 101.195 116.493 100.73 115.764 99.7988H115.607C115.712 100.71 115.764 101.238 115.764 101.381V105.805H112.785V90.082H115.207L115.627 91.498H115.764C116.46 90.4173 117.492 89.877 118.859 89.877C120.148 89.877 121.158 90.375 121.887 91.3711C122.616 92.3672 122.98 93.7507 122.98 95.5215C122.98 96.6868 122.808 97.6992 122.463 98.5586C122.124 99.418 121.639 100.072 121.008 100.521C120.376 100.971 119.634 101.195 118.781 101.195ZM117.902 92.2598C117.167 92.2598 116.63 92.4876 116.291 92.9434C115.952 93.3926 115.777 94.138 115.764 95.1797V95.502C115.764 96.6738 115.936 97.5137 116.281 98.0215C116.633 98.5293 117.186 98.7832 117.941 98.7832C119.276 98.7832 119.943 97.6829 119.943 95.4824C119.943 94.4082 119.777 93.6042 119.445 93.0703C119.12 92.5299 118.605 92.2598 117.902 92.2598ZM129.963 91.9961C129.331 91.9961 128.837 92.1979 128.479 92.6016C128.12 92.9987 127.915 93.5651 127.863 94.3008H132.043C132.03 93.5651 131.838 92.9987 131.467 92.6016C131.096 92.1979 130.594 91.9961 129.963 91.9961ZM130.383 101.195C128.625 101.195 127.251 100.71 126.262 99.7402C125.272 98.7702 124.777 97.3965 124.777 95.6191C124.777 93.7897 125.233 92.377 126.145 91.3809C127.062 90.3783 128.329 89.877 129.943 89.877C131.486 89.877 132.688 90.3164 133.547 91.1953C134.406 92.0742 134.836 93.2884 134.836 94.8379V96.2832H127.795C127.827 97.1296 128.078 97.7904 128.547 98.2656C129.016 98.7409 129.673 98.9785 130.52 98.9785C131.177 98.9785 131.799 98.9102 132.385 98.7734C132.971 98.6367 133.583 98.4186 134.221 98.1191V100.424C133.7 100.684 133.143 100.876 132.551 101C131.958 101.13 131.236 101.195 130.383 101.195ZM144.094 98.8223V92.3184H141.857C141.695 93.5293 141.47 94.6784 141.184 95.7656C140.904 96.8529 140.513 97.8717 140.012 98.8223H144.094ZM148.674 104.916H145.998V101H138.654V104.916H135.979V98.8223H136.896C137.521 97.8522 138.046 96.6283 138.469 95.1504C138.892 93.6725 139.188 91.9831 139.357 90.082H147.072V98.8223H148.674V104.916ZM153.42 90.082V94.3984C153.42 94.8542 153.345 95.9674 153.195 97.7383L158.234 90.082H161.818V101H158.938V96.6445C158.938 95.8698 159.003 94.776 159.133 93.3633L154.113 101H150.539V90.082H153.42ZM173.986 90.082V92.3184H170.412V101H167.434V92.3184H163.85V90.082H173.986ZM183.596 95.5215C183.596 96.6022 183.771 97.4193 184.123 97.9727C184.481 98.526 185.061 98.8027 185.861 98.8027C186.656 98.8027 187.225 98.5293 187.57 97.9824C187.922 97.429 188.098 96.6087 188.098 95.5215C188.098 94.4408 187.922 93.6302 187.57 93.0898C187.219 92.5495 186.643 92.2793 185.842 92.2793C185.048 92.2793 184.475 92.5495 184.123 93.0898C183.771 93.6237 183.596 94.4342 183.596 95.5215ZM191.145 95.5215C191.145 97.2988 190.676 98.6888 189.738 99.6914C188.801 100.694 187.495 101.195 185.822 101.195C184.774 101.195 183.85 100.967 183.049 100.512C182.248 100.049 181.633 99.3887 181.203 98.5293C180.773 97.6699 180.559 96.6673 180.559 95.5215C180.559 93.7376 181.024 92.3509 181.955 91.3613C182.886 90.3717 184.195 89.877 185.881 89.877C186.929 89.877 187.854 90.1048 188.654 90.5605C189.455 91.0163 190.07 91.6706 190.5 92.5234C190.93 93.3763 191.145 94.3757 191.145 95.5215ZM200.441 98.8223V92.3184H198.205C198.042 93.5293 197.818 94.6784 197.531 95.7656C197.251 96.8529 196.861 97.8717 196.359 98.8223H200.441ZM205.021 104.916H202.346V101H195.002V104.916H192.326V98.8223H193.244C193.869 97.8522 194.393 96.6283 194.816 95.1504C195.24 93.6725 195.536 91.9831 195.705 90.082H203.42V98.8223H205.021V104.916ZM209.26 95.5215C209.26 96.6022 209.436 97.4193 209.787 97.9727C210.145 98.526 210.725 98.8027 211.525 98.8027C212.32 98.8027 212.889 98.5293 213.234 97.9824C213.586 97.429 213.762 96.6087 213.762 95.5215C213.762 94.4408 213.586 93.6302 213.234 93.0898C212.883 92.5495 212.307 92.2793 211.506 92.2793C210.712 92.2793 210.139 92.5495 209.787 93.0898C209.436 93.6237 209.26 94.4342 209.26 95.5215ZM216.809 95.5215C216.809 97.2988 216.34 98.6888 215.402 99.6914C214.465 100.694 213.16 101.195 211.486 101.195C210.438 101.195 209.514 100.967 208.713 100.512C207.912 100.049 207.297 99.3887 206.867 98.5293C206.438 97.6699 206.223 96.6673 206.223 95.5215C206.223 93.7376 206.688 92.3509 207.619 91.3613C208.55 90.3717 209.859 89.877 211.545 89.877C212.593 89.877 213.518 90.1048 214.318 90.5605C215.119 91.0163 215.734 91.6706 216.164 92.5234C216.594 93.3763 216.809 94.3757 216.809 95.5215ZM218.605 94.457C218.605 91.9505 219.081 90.0495 220.031 88.7539C220.988 87.4518 222.479 86.6283 224.504 86.2832C225.487 86.1139 226.955 85.8991 228.908 85.6387L229.25 88.2363C228.404 88.334 226.903 88.5423 224.748 88.8613C223.928 88.9915 223.316 89.1868 222.912 89.4473C222.508 89.7077 222.206 90.0788 222.004 90.5605C221.809 91.0423 221.688 91.6836 221.643 92.4844H221.789C222.134 91.9505 222.59 91.5404 223.156 91.2539C223.723 90.9674 224.331 90.8242 224.982 90.8242C226.33 90.8242 227.378 91.2376 228.127 92.0645C228.876 92.8848 229.25 94.0632 229.25 95.5996C229.25 97.3704 228.775 98.7474 227.824 99.7305C226.88 100.707 225.575 101.195 223.908 101.195C222.242 101.195 220.939 100.6 220.002 99.4082C219.071 98.2103 218.605 96.5599 218.605 94.457ZM224.084 98.7832C225.497 98.7832 226.203 97.8099 226.203 95.8633C226.203 93.9688 225.565 93.0215 224.289 93.0215C223.938 93.0215 223.586 93.1029 223.234 93.2656C222.889 93.4284 222.57 93.6432 222.277 93.9102C221.991 94.1706 221.779 94.4342 221.643 94.7012C221.643 96.0228 221.854 97.0352 222.277 97.7383C222.701 98.4349 223.303 98.7832 224.084 98.7832ZM237.707 101.195C236.424 101.195 235.419 100.73 234.689 99.7988H234.533C234.637 100.71 234.689 101.238 234.689 101.381V105.805H231.711V90.082H234.133L234.553 91.498H234.689C235.386 90.4173 236.418 89.877 237.785 89.877C239.074 89.877 240.083 90.375 240.812 91.3711C241.542 92.3672 241.906 93.7507 241.906 95.5215C241.906 96.6868 241.734 97.6992 241.389 98.5586C241.05 99.418 240.565 100.072 239.934 100.521C239.302 100.971 238.56 101.195 237.707 101.195ZM236.828 92.2598C236.092 92.2598 235.555 92.4876 235.217 92.9434C234.878 93.3926 234.702 94.138 234.689 95.1797V95.502C234.689 96.6738 234.862 97.5137 235.207 98.0215C235.559 98.5293 236.112 98.7832 236.867 98.7832C238.202 98.7832 238.869 97.6829 238.869 95.4824C238.869 94.4082 238.703 93.6042 238.371 93.0703C238.046 92.5299 237.531 92.2598 236.828 92.2598ZM248.889 91.9961C248.257 91.9961 247.762 92.1979 247.404 92.6016C247.046 92.9987 246.841 93.5651 246.789 94.3008H250.969C250.956 93.5651 250.764 92.9987 250.393 92.6016C250.021 92.1979 249.52 91.9961 248.889 91.9961ZM249.309 101.195C247.551 101.195 246.177 100.71 245.188 99.7402C244.198 98.7702 243.703 97.3965 243.703 95.6191C243.703 93.7897 244.159 92.377 245.07 91.3809C245.988 90.3783 247.255 89.877 248.869 89.877C250.412 89.877 251.613 90.3164 252.473 91.1953C253.332 92.0742 253.762 93.2884 253.762 94.8379V96.2832H246.721C246.753 97.1296 247.004 97.7904 247.473 98.2656C247.941 98.7409 248.599 98.9785 249.445 98.9785C250.103 98.9785 250.725 98.9102 251.311 98.7734C251.896 98.6367 252.508 98.4186 253.146 98.1191V100.424C252.626 100.684 252.069 100.876 251.477 101C250.884 101.13 250.161 101.195 249.309 101.195ZM259.162 90.082V94.2812H263.322V90.082H266.301V101H263.322V96.498H259.162V101H256.184V90.082H259.162Z" fill="black"/>
<path d="M177.166 34.9999C177.166 18.8916 164.108 5.83325 148 5.83325C131.891 5.83325 118.833 18.8916 118.833 34.9999C118.833 51.1082 131.891 64.1666 148 64.1666C164.108 64.1666 177.166 51.1082 177.166 34.9999Z" stroke="#52FFA8" stroke-width="5"/>
<path d="M134.875 33.5417L144.289 44.301C144.702 44.7724 145.441 44.7529 145.828 44.2603L161.125 24.7917" stroke="#52FFA8" stroke-width="5" stroke-linecap="round" stroke-linejoin="round"/>
</svg>
