<svg width="192" height="72" viewBox="0 0 192 72" fill="none" xmlns="http://www.w3.org/2000/svg">
<path d="M61.9203 43.7222C64.2773 44.512 66.1792 45.9244 67.6188 47.9518C69.0583 49.9793 69.6997 52.227 69.5356 54.7101C69.4088 56.8287 68.6928 58.7347 67.395 60.4432C66.0972 62.1442 64.4488 63.3895 62.4648 64.1565C61.0924 64.6956 59.6678 64.969 58.191 64.969H53.8426C53.6337 64.969 53.4547 64.8931 53.3055 64.7412C53.1564 64.5893 53.0818 64.4071 53.0818 64.1945V43.8893C53.0818 43.6767 53.1564 43.4944 53.3055 43.3426C53.4547 43.1907 53.6337 43.1147 53.8426 43.1147H58.191C59.4739 43.1147 60.7195 43.3122 61.9203 43.7222ZM58.1835 61.1494C59.5186 61.1494 60.7642 60.8305 61.8979 60.1927C63.0391 59.5548 63.9342 58.6891 64.598 57.5957C65.2543 56.5022 65.59 55.3176 65.59 54.0343C65.59 52.751 65.2618 51.5588 64.598 50.4653C63.9416 49.3642 63.0391 48.4986 61.8979 47.8607C60.7568 47.2229 59.5186 46.9039 58.1835 46.9039H57.3109C57.2437 46.9039 57.1766 46.9343 57.1169 46.9951C57.0573 47.0558 57.0274 47.1241 57.0274 47.1925V60.8761C57.0274 60.9444 57.0573 61.0128 57.1095 61.0659C57.1617 61.1191 57.2288 61.1494 57.3109 61.1494H58.1835Z" fill="#00C0FF"/>
<path d="M79.6501 49.3945C80.7017 49.3945 81.7012 49.5996 82.6559 50.0172C83.6106 50.4348 84.4311 50.9968 85.1247 51.6954C85.8184 52.394 86.3629 53.2369 86.7731 54.2088C87.1833 55.1808 87.3847 56.1984 87.3847 57.269C87.3847 58.6966 87.0416 60.0103 86.348 61.2177C85.6618 62.4251 84.722 63.3819 83.5286 64.0881C82.3426 64.7867 81.0448 65.1436 79.6426 65.1436C78.5909 65.1436 77.5915 64.9385 76.6368 64.5209C75.682 64.1032 74.8616 63.5413 74.1679 62.8427C73.4817 62.1441 72.9298 61.3012 72.5196 60.3292C72.1093 59.3573 71.908 58.3397 71.908 57.269C71.908 55.8415 72.2511 54.5278 72.9447 53.3204C73.6309 52.113 74.5707 51.1562 75.7641 50.45C76.9575 49.7514 78.2478 49.3945 79.6501 49.3945ZM76.9799 59.9799C77.7183 60.7241 78.6058 61.1038 79.6501 61.1038C80.6943 61.1038 81.5744 60.7317 82.3128 59.9799C83.0438 59.2358 83.4167 58.3321 83.4167 57.269C83.4167 56.2135 83.0512 55.3023 82.3128 54.5506C81.5744 53.7988 80.6943 53.4191 79.6501 53.4191C78.6058 53.4191 77.7183 53.7988 76.9799 54.5506C76.2414 55.3023 75.8685 56.2059 75.8685 57.269C75.876 58.3321 76.2414 59.2358 76.9799 59.9799Z" fill="#00C0FF"/>
<path d="M95.5071 54.6343C95.8651 54.7179 96.1486 54.7786 96.3425 54.8242C96.5439 54.8697 96.8422 54.9609 97.2525 55.0899C97.6552 55.219 97.9834 55.3557 98.2445 55.4924C98.5055 55.6291 98.7964 55.8189 99.1395 56.0543C99.4826 56.2897 99.7586 56.5555 99.9749 56.8289C100.191 57.1098 100.385 57.4515 100.564 57.8692C100.743 58.2868 100.862 58.7348 100.922 59.2208C101.094 60.6029 100.728 61.8634 99.8257 63.0024C99.3185 63.6555 98.6771 64.1718 97.9088 64.5667C97.1406 64.9616 96.3127 65.197 95.4176 65.2729C95.2759 65.2805 95.0745 65.2881 94.806 65.2881C93.3889 65.2881 92.1283 64.9084 91.0319 64.1415C89.9355 63.3745 89.212 62.3949 88.8764 61.18C88.8241 60.9901 88.854 60.8079 88.9659 60.6408C89.0777 60.4738 89.2344 60.3827 89.4283 60.3599L92.1582 60.0106C92.4565 59.9726 92.6654 60.0637 92.7847 60.2839C92.9563 60.5801 93.2546 60.8231 93.6872 61.0129C94.1198 61.2028 94.5897 61.2863 95.0969 61.2407C95.8353 61.18 96.3872 60.9142 96.7602 60.451C96.9392 60.2156 97.0138 59.9802 96.9839 59.7372C96.9541 59.4714 96.7826 59.2588 96.4693 59.1069C96.156 58.9475 95.5593 58.7728 94.6941 58.583C93.8662 58.4007 93.2919 58.2337 92.9712 58.097C91.6584 57.5351 90.7559 56.6998 90.2488 55.5759C89.7416 54.4597 89.7416 53.2827 90.2413 52.0525C90.6814 50.997 91.4571 50.2073 92.5759 49.6985C93.6947 49.1822 94.903 49.0607 96.1859 49.3264C96.9765 49.4859 97.7373 49.8732 98.4757 50.4882C99.2141 51.0957 99.6914 51.8779 99.9003 52.8195C99.9525 53.0245 99.9152 53.2143 99.7884 53.3814C99.6616 53.556 99.4975 53.6472 99.2887 53.6548L96.35 53.7307C96.2008 53.7307 96.0516 53.6699 95.9024 53.5484C95.7607 53.427 95.5892 53.3358 95.3803 53.2751C95.0223 53.1916 94.6941 53.1991 94.4032 53.2827C94.1123 53.3662 93.9408 53.4725 93.896 53.594C93.7692 53.8902 93.9632 54.1483 94.4927 54.3686C94.545 54.4065 94.8881 54.49 95.5071 54.6343Z" fill="#00C0FF"/>
<path d="M107.65 43.7982C107.896 43.6767 108.142 43.6919 108.373 43.8362C108.604 43.9805 108.724 44.2007 108.724 44.4816V48.6353C108.724 48.8479 108.798 49.0302 108.94 49.1821C109.082 49.3339 109.261 49.4099 109.47 49.4099H111.491C111.7 49.4099 111.879 49.4858 112.02 49.6301C112.162 49.7744 112.237 49.9566 112.237 50.1692V52.6751C112.237 52.8877 112.162 53.07 112.02 53.2142C111.879 53.3585 111.7 53.4345 111.491 53.4345H109.47C109.261 53.4345 109.082 53.5104 108.94 53.6623C108.791 53.8141 108.724 53.9964 108.724 54.209V59.3043C108.724 59.6915 108.836 60.0333 109.059 60.3446C109.283 60.6559 109.574 60.861 109.925 60.9673C110.074 61.0052 110.201 61.0964 110.29 61.2406C110.387 61.3849 110.432 61.5368 110.432 61.6962V64.2477C110.432 64.4831 110.35 64.6729 110.178 64.8248C110.007 64.9767 109.813 65.0374 109.596 65.007C108.224 64.802 107.075 64.1566 106.15 63.0783C105.218 61.9924 104.756 60.7319 104.756 59.2891V54.1938C104.756 53.9812 104.681 53.7989 104.539 53.6547C104.398 53.5104 104.219 53.4345 104.01 53.4345H103.57C103.361 53.4345 103.182 53.3585 103.033 53.2066C102.884 53.0548 102.809 52.8725 102.809 52.6599V50.1692C102.809 49.9566 102.884 49.7744 103.033 49.6225C103.182 49.4706 103.361 49.3947 103.57 49.3947H104.002C104.211 49.3947 104.39 49.3187 104.532 49.1745C104.674 49.0302 104.748 48.8479 104.748 48.6353V45.6587C104.748 45.3245 104.89 45.0891 105.181 44.96L107.65 43.7982Z" fill="#00C0FF"/>
<path d="M124.514 58.7499V51.1944C124.514 50.9817 124.588 50.7995 124.73 50.6552C124.872 50.5109 125.051 50.435 125.26 50.435H127.714C127.922 50.435 128.101 50.5109 128.251 50.6552C128.4 50.7995 128.474 50.9817 128.474 51.1944V64.392C128.474 64.6046 128.4 64.7868 128.251 64.9311C128.101 65.0754 127.922 65.1513 127.714 65.1513H125.871C125.491 65.1513 125.17 65.0146 124.902 64.7489C124.633 64.4831 124.506 64.1566 124.506 63.7769C124.193 64.1262 123.701 64.4451 123.022 64.7564C122.343 65.0602 121.762 65.2121 121.284 65.2121C119.434 65.2121 117.928 64.6122 116.764 63.4048C115.601 62.1974 115.019 60.6483 115.019 58.7424V51.0653C115.019 50.8526 115.094 50.6704 115.235 50.5261C115.377 50.3818 115.556 50.3059 115.765 50.3059H118.226C118.435 50.3059 118.614 50.3818 118.756 50.5261C118.897 50.6704 118.972 50.8526 118.972 51.0653V58.636C118.972 59.3802 119.211 60.0333 119.681 60.5952C120.158 61.1571 120.747 61.476 121.456 61.552C122.276 61.6355 122.985 61.3925 123.589 60.8382C124.208 60.2687 124.514 59.5776 124.514 58.7499Z" fill="#00C0FF"/>
<path d="M145.63 50.4654L140.237 56.768C140.125 56.8971 140.073 57.0642 140.08 57.2464C140.088 57.4363 140.14 57.5957 140.252 57.7248L146.01 64.2097C146.122 64.3388 146.152 64.4527 146.114 64.5438C146.077 64.635 145.973 64.6805 145.801 64.6805H141.706C141.535 64.6805 141.348 64.635 141.139 64.5438C140.931 64.4527 140.767 64.3388 140.662 64.2097L137.634 60.7926C137.522 60.6635 137.388 60.5952 137.216 60.5952C137.045 60.5952 136.903 60.6635 136.799 60.7926L136.06 61.6659C135.777 61.9924 135.642 62.3645 135.642 62.7821V64.0654C135.642 64.2401 135.583 64.3844 135.463 64.5059C135.344 64.6274 135.202 64.6881 135.031 64.6881H132.301C132.129 64.6881 131.988 64.6274 131.868 64.5059C131.749 64.3844 131.689 64.2401 131.689 64.0654V42.3327C131.689 42.158 131.749 42.0062 131.868 41.8847C131.988 41.7556 132.129 41.6948 132.301 41.6948H135.031C135.202 41.6948 135.344 41.7556 135.463 41.8847C135.583 42.0138 135.642 42.1656 135.642 42.3327V55.3632C135.642 55.5379 135.687 55.6366 135.769 55.667C135.851 55.6973 135.948 55.6442 136.06 55.5151L140.379 50.4654C140.491 50.3363 140.647 50.2224 140.849 50.1237C141.05 50.025 141.244 49.9794 141.408 49.9794H145.421C145.592 49.9794 145.697 50.025 145.734 50.1237C145.771 50.2224 145.741 50.3363 145.63 50.4654Z" fill="#00C0FF"/>
<path d="M157.846 54.0649C157.72 54.194 157.555 54.2699 157.376 54.2851C157.19 54.3003 157.026 54.2547 156.877 54.1408C156.161 53.6245 155.325 53.4042 154.386 53.4802C153.446 53.5561 152.663 53.913 152.036 54.5585C151.298 55.3102 150.925 56.2139 150.925 57.277C150.925 58.3325 151.298 59.2437 152.036 59.9954C152.663 60.6333 153.453 60.9978 154.386 61.0737C155.325 61.1497 156.153 60.9295 156.877 60.4131C157.026 60.2992 157.197 60.2536 157.376 60.2688C157.563 60.284 157.72 60.3599 157.846 60.489L159.599 62.2735C159.756 62.433 159.838 62.6304 159.823 62.8582C159.815 63.086 159.726 63.2759 159.554 63.4125C158.152 64.5744 156.534 65.1515 154.699 65.1515C153.669 65.1515 152.685 64.954 151.738 64.5592C150.79 64.1643 149.955 63.5948 149.224 62.8506C147.717 61.3167 146.957 59.4563 146.957 57.2845C146.957 55.128 147.71 53.2676 149.224 51.7185C150.112 50.8148 151.178 50.177 152.416 49.8125C153.655 49.448 154.908 49.3797 156.168 49.6151C157.436 49.8505 158.555 50.3592 159.532 51.1566C159.704 51.3008 159.793 51.4831 159.808 51.7109C159.823 51.9387 159.748 52.1361 159.592 52.2956L157.846 54.0649Z" fill="#52FFA8"/>
<path d="M170.258 49.5997C171.854 49.8959 173.174 50.6628 174.218 51.9006C175.255 53.1383 175.777 54.5811 175.777 56.2213V63.9136C175.777 64.1262 175.703 64.3084 175.546 64.4603C175.389 64.6122 175.21 64.6881 175.001 64.6881H172.585C172.376 64.6881 172.189 64.6122 172.04 64.4603C171.884 64.3084 171.809 64.1262 171.809 63.9136V56.2517C171.809 55.424 171.503 54.733 170.899 54.171C170.295 53.6091 169.579 53.3661 168.766 53.4496C168.057 53.518 167.461 53.8445 166.991 54.414C166.513 54.9835 166.282 55.6366 166.282 56.3808V63.9212C166.282 64.1338 166.208 64.3236 166.058 64.4755C165.909 64.635 165.73 64.7109 165.521 64.7109H163.097C162.888 64.7109 162.709 64.635 162.56 64.4755C162.411 64.316 162.337 64.1338 162.337 63.9212V42.4846C162.337 42.2719 162.411 42.0821 162.56 41.9302C162.709 41.7708 162.888 41.6948 163.097 41.6948H165.521C165.73 41.6948 165.909 41.7708 166.058 41.9302C166.208 42.0897 166.282 42.2719 166.282 42.4846V50.7539C166.715 50.3135 167.267 49.9718 167.938 49.7212C168.602 49.4782 169.378 49.4327 170.258 49.5997Z" fill="#52FFA8"/>
<path d="M185.436 49.3945C187.241 49.3945 188.793 50.0476 190.075 51.3613C191.358 52.6749 192 54.2544 192 56.1072V63.921C192 64.1336 191.925 64.3159 191.784 64.4601C191.642 64.6044 191.463 64.6804 191.254 64.6804H189.576C189.143 64.6804 188.785 64.5285 188.487 64.2247C188.188 63.921 188.047 63.5489 188.047 63.1085C187.763 63.64 187.204 64.1108 186.354 64.5209C185.503 64.9309 184.728 65.136 184.019 65.136C182.281 65.136 180.864 64.7107 179.775 63.8603C178.686 63.0098 178.142 61.8556 178.142 60.39C178.142 58.7042 178.746 57.3526 179.947 56.335C181.147 55.3251 182.766 54.8163 184.795 54.8163C185.802 54.8163 186.831 54.9606 187.883 55.2568C187.704 54.7176 187.331 54.2316 186.771 53.7988C186.212 53.366 185.645 53.1533 185.078 53.1533C184.116 53.1533 183.273 53.3508 182.542 53.7456C182.363 53.8368 182.177 53.8595 181.99 53.8064C181.804 53.7532 181.647 53.6469 181.543 53.4723L180.357 51.5967C180.237 51.4068 180.2 51.1942 180.26 50.9816C180.312 50.7614 180.439 50.5943 180.64 50.488C181.468 50.04 182.259 49.7438 183.012 49.5996C183.773 49.4705 184.578 49.3945 185.436 49.3945ZM184.012 61.529C184.668 61.529 185.347 61.362 186.048 61.0279C186.749 60.6937 187.278 60.1622 187.637 59.4408C186.801 59.0535 185.839 58.8637 184.757 58.8637C184.101 58.8637 183.527 58.9548 183.049 59.1371C182.647 59.2889 182.393 59.4712 182.274 59.6686C182.154 59.8736 182.095 60.1166 182.095 60.3976C182.095 60.6558 182.177 60.8608 182.348 61.0279C182.52 61.1949 182.736 61.3088 182.99 61.3696C183.251 61.4303 183.452 61.4683 183.601 61.4911C183.758 61.5214 183.892 61.529 184.012 61.529Z" fill="#52FFA8"/>
<path d="M28.4949 44.4479C31.7467 44.4479 34.3829 41.8483 34.3829 38.6414C34.3829 35.4346 31.7467 32.835 28.4949 32.835C25.243 32.835 22.6068 35.4346 22.6068 38.6414C22.6068 41.8483 25.243 44.4479 28.4949 44.4479Z" fill="#00C0FF"/>
<path d="M37.6138 46.9952C35.5965 50.137 35.336 53.3523 35.202 55.0406C34.8744 59.1514 35.924 62.6896 36.125 63.3283C37.1299 66.6095 38.5219 68.3713 37.6882 69.377C37.1299 70.045 35.7528 70.1698 34.8893 69.6559C33.2815 68.709 34.2715 66.1764 32.7232 64.8037C31.5694 63.7834 29.6712 63.8641 28.4653 64.2752C26.9691 64.7817 26.0386 66.0443 24.1702 68.5769C22.6294 70.6763 22.1679 71.7701 20.9396 71.9683C20.1729 72.093 19.1903 71.8508 18.8479 71.2342C18.3417 70.3093 19.5551 69.0393 20.694 67.1748C21.0662 66.5655 23.4259 62.6089 23.4854 58.131C23.5003 56.9639 23.5003 54.5781 22.0785 52.1704C20.7908 49.9902 18.8926 48.7423 18.5874 48.5441C16.1681 46.9805 14.2998 47.1714 13.9499 45.9088C13.734 45.1233 14.203 44.0883 14.9399 43.6699C16.317 42.8991 17.8728 44.6902 21.0141 45.8647C21.5947 46.0776 26.6639 47.8908 31.3238 46.0262C33.408 45.1894 34.9117 43.8167 36.1846 42.6569C38.9834 40.1023 39.9437 37.8927 41.3282 38.1423C42.1173 38.2891 42.7947 39.1921 42.9361 40.0509C43.3008 42.2531 40.0479 43.2147 37.6138 46.9952Z" fill="#00C0FF"/>
<path d="M16.4657 25.6484C6.72176 27.3882 9.74395 37.5404 0 39.2801C2.63511 42.3705 3.95266 43.9194 6.58033 47.0099C16.3243 45.2701 13.3021 35.1179 23.046 33.3782C20.4184 30.2878 19.1008 28.7389 16.4657 25.6484ZM10.9201 38.3919C10.466 38.3772 9.98215 38.0616 9.46853 37.4596C8.88047 36.7696 8.63482 36.0722 8.70926 35.3528C8.76137 34.883 8.96235 34.3985 9.29732 33.8994C9.8035 33.1653 10.0491 32.7909 10.5628 32.0642C10.8829 32.4386 11.0392 32.6221 11.3518 32.9965C11.1211 33.3268 11.002 33.4956 10.7712 33.826C10.667 33.7012 10.6149 33.6351 10.5032 33.5103C10.2352 33.8994 10.1013 34.0902 9.83327 34.4866C9.58018 34.8537 9.46853 35.162 9.49086 35.4189C9.52063 35.7419 9.73651 36.1383 10.1459 36.6228C10.5107 37.0485 10.801 37.2834 11.0243 37.3201C11.2774 37.3642 11.5379 37.1954 11.7984 36.8063C12.0664 36.4172 12.2004 36.2264 12.4684 35.8373C12.3716 35.7199 12.3195 35.6611 12.2227 35.5437C12.4535 35.2134 12.5652 35.0445 12.8034 34.7142C13.116 35.0739 13.2649 35.2574 13.5775 35.6244C13.0713 36.3438 12.8257 36.7109 12.3195 37.4376C11.8878 38.0909 11.4114 38.4139 10.9201 38.3919ZM12.6396 40.1537C12.3493 39.8086 12.2004 39.6398 11.9101 39.2948C12.8034 38.0102 13.2351 37.3495 14.1358 36.0722C14.4261 36.4172 14.575 36.5861 14.8727 36.9311C13.9646 38.2084 13.5328 38.8617 12.6396 40.1537Z" fill="#00C0FF"/>
<path d="M34.9267 18.6455C32.8425 22.125 31.8003 23.8574 29.7161 27.3369C34.6141 35.8227 43.3159 29.6419 48.2214 38.1277C50.3057 34.6482 51.3478 32.9158 53.4321 29.4363C48.534 20.9505 39.8322 27.1314 34.9267 18.6455ZM42.1398 31.3302C40.584 30.9045 39.795 30.721 38.2318 30.3099C38.47 29.9135 38.5891 29.7153 38.8273 29.3189C40.3905 29.73 41.187 29.9208 42.7353 30.3392C42.4971 30.7356 42.378 30.9338 42.1398 31.3302ZM44.8121 26.6615C44.4102 26.5514 44.2092 26.5001 43.7998 26.3899C43.8891 26.2431 43.9337 26.1771 44.0156 26.0302C43.5467 25.9055 43.3085 25.8467 42.8321 25.7219C42.3929 25.6118 42.043 25.6045 41.8048 25.7146C41.4996 25.8467 41.187 26.1917 40.852 26.7496C40.5543 27.2415 40.4277 27.6012 40.4649 27.8287C40.5022 28.0856 40.7627 28.2692 41.2391 28.394C41.7155 28.5187 41.9462 28.5775 42.4152 28.7023C42.4971 28.5701 42.5343 28.5041 42.6162 28.3646C43.0256 28.4674 43.2266 28.5261 43.6286 28.6362C43.3755 29.0546 43.2564 29.2602 43.0033 29.6786C42.1249 29.4437 41.6857 29.3262 40.7999 29.0987C39.996 28.8931 39.5196 28.5481 39.3707 28.0783C39.2367 27.6452 39.3781 27.0726 39.795 26.3826C40.2714 25.5898 40.8743 25.1127 41.6038 24.9438C42.0802 24.8337 42.6236 24.8557 43.2266 25.0099C44.1198 25.2375 44.5665 25.3549 45.4523 25.5971C45.1992 26.0229 45.0727 26.2358 44.8121 26.6615Z" fill="#00C0FF"/>
<path d="M30.014 0C20.2849 1.86454 23.4411 11.9727 13.7195 13.8299C16.3918 16.8909 17.7243 18.4178 20.3966 21.4789C30.1182 19.6217 26.962 9.5062 36.6911 7.649C34.0188 4.59528 32.6863 3.06107 30.014 0ZM23.2029 11.8699C22.6223 11.2019 22.3617 10.5192 22.4362 9.80717C22.4808 9.34471 22.6744 8.86022 23.0019 8.36839C23.4858 7.64166 23.7314 7.27463 24.2227 6.5479C24.5428 6.90759 24.6991 7.09111 25.0117 7.45081C24.7884 7.78114 24.6768 7.94263 24.4535 8.27296C24.3492 8.14817 24.2971 8.08945 24.1929 7.96466C23.9324 8.34637 23.8058 8.54457 23.5453 8.92629C23.3071 9.28598 23.1955 9.59429 23.2252 9.85121C23.255 10.1669 23.4709 10.5559 23.8803 11.0257C24.245 11.4441 24.5353 11.6644 24.7512 11.7011C24.9969 11.7451 25.2499 11.5689 25.5105 11.1872C25.7636 10.8055 25.8976 10.6073 26.1507 10.2256C26.0539 10.1155 26.0018 10.0568 25.905 9.94664C26.1283 9.61631 26.24 9.44748 26.4633 9.12449C26.7685 9.47684 26.9248 9.65302 27.23 10.0054C26.7387 10.7174 26.5005 11.0845 26.0167 11.8038C25.5775 12.4572 25.116 12.7875 24.6321 12.7728C24.2004 12.7581 23.7165 12.4572 23.2029 11.8699ZM26.3516 14.4759C26.0613 14.1382 25.9124 13.9767 25.6221 13.639C26.4782 12.3617 26.895 11.7158 27.766 10.4458C28.0563 10.7835 28.2051 10.945 28.4955 11.2826C27.6245 12.5526 27.2077 13.1986 26.3516 14.4759Z" fill="#00C0FF"/>
</svg>
