<svg width="70" height="70" viewBox="0 0 70 70" fill="none" xmlns="http://www.w3.org/2000/svg">
<path d="M46.0051 56.3465C45.2723 56.0954 45.0382 55.7205 44.9958 55.0284C44.894 53.3559 45.2486 51.7749 45.9271 50.2635C46.9024 48.0956 47.6641 45.8666 48.044 43.5139C48.0779 43.3018 48.1814 43.0864 48.3035 42.9083C50.2254 40.1144 50.8225 36.9237 51.0753 33.6362C51.1109 33.1698 51.0702 32.6456 50.8904 32.2215C50.0694 30.2911 50.5528 28.3285 50.6715 26.376C50.7869 24.4439 51.2025 22.4983 51.06 20.5882C50.5952 14.2813 45.9763 9.2365 39.6967 8.09488C35.4916 7.33154 31.312 7.40957 27.3343 9.25007C21.8197 11.8013 18.5985 18.0997 19.601 24.0673C19.9402 26.0877 19.9724 28.1588 20.1251 30.2097C20.1489 30.5133 20.1115 30.8373 20.0284 31.1308C18.8376 35.3207 20.1692 39.0526 22.1047 42.681C22.3235 43.0898 22.4761 43.5393 22.6118 43.9837C23.1411 45.7021 23.5363 47.4714 24.1962 49.1354C25.0239 51.2253 25.0969 53.3525 24.99 55.5322C24.9595 56.1276 24.5456 56.2328 24.1079 56.3855C20.9766 57.4762 17.847 58.5669 14.7208 59.6661C13.6165 60.0546 12.5122 60.443 11.4097 60.8332C17.635 66.5243 25.9213 70.0001 35.0014 70.0001C44.1155 70.0001 52.4272 66.4989 58.661 60.7687C57.5618 60.3786 56.4609 59.9884 55.36 59.6C52.2474 58.5008 49.1279 57.4168 46.0051 56.3465Z" fill="url(#paint0_linear_379_765)"/>
<path d="M35.0008 0C15.7007 0 0 15.7011 0 35C0 45.2186 4.40182 54.4278 11.4091 60.8331C17.6344 66.5242 25.9207 70 35.0008 70C44.1149 70 52.4266 66.4988 58.6604 60.7686C65.627 54.3668 70 45.1846 70 35C70 15.7011 54.2993 0 35.0008 0ZM55.3595 59.5999C49.8279 64.1867 42.7308 66.9466 35.0008 66.9466C27.3083 66.9466 20.2399 64.2139 14.7202 59.666C7.60099 53.8019 3.05329 44.9217 3.05329 35C3.05329 17.3838 17.3851 3.05336 35.0008 3.05336C52.6149 3.05336 66.9467 17.3838 66.9467 35C66.9467 44.8861 62.4329 53.7357 55.3595 59.5999Z" fill="url(#paint1_linear_379_765)"/>
<defs>
<linearGradient id="paint0_linear_379_765" x1="11.4097" y1="7.63965" x2="70.6235" y2="50.2634" gradientUnits="userSpaceOnUse">
<stop offset="0.0132289" stop-color="#00C0FF"/>
<stop offset="0.580971" stop-color="#5BD6FF"/>
<stop offset="1" stop-color="#00C0FF"/>
</linearGradient>
<linearGradient id="paint1_linear_379_765" x1="0" y1="0" x2="70" y2="66.5" gradientUnits="userSpaceOnUse">
<stop offset="0.0132289" stop-color="#00C0FF"/>
<stop offset="0.580971" stop-color="#5BD6FF"/>
<stop offset="1" stop-color="#00C0FF"/>
</linearGradient>
</defs>
</svg>
