<svg width="157" height="24" viewBox="0 0 157 24" fill="none" xmlns="http://www.w3.org/2000/svg">
<path d="M43.2559 19.6045H42.1484V17H35.2031V19.6045H34.0957V15.9473H34.8682C35.57 14.7669 36.1693 13.3314 36.666 11.6406C37.1673 9.94987 37.4453 8.40495 37.5 7.00586H41.9912V15.9473H43.2559V19.6045ZM40.8291 15.9473V8.05176H38.5527C38.4707 9.15462 38.195 10.4808 37.7256 12.0303C37.2562 13.5752 36.7093 14.8809 36.085 15.9473H40.8291ZM51.2402 13.2471C51.2402 14.4684 50.9326 15.4232 50.3174 16.1113C49.7021 16.7949 48.8522 17.1367 47.7676 17.1367C47.0977 17.1367 46.5029 16.9795 45.9834 16.665C45.4639 16.3506 45.0628 15.8994 44.7803 15.3115C44.4977 14.7236 44.3564 14.0355 44.3564 13.2471C44.3564 12.0257 44.6618 11.0755 45.2725 10.3965C45.8831 9.71289 46.7308 9.37109 47.8154 9.37109C48.8636 9.37109 49.6953 9.71973 50.3105 10.417C50.9303 11.1143 51.2402 12.0576 51.2402 13.2471ZM45.5322 13.2471C45.5322 14.2041 45.7236 14.9333 46.1064 15.4346C46.4893 15.9359 47.0521 16.1865 47.7949 16.1865C48.5378 16.1865 49.1006 15.9382 49.4834 15.4414C49.8708 14.9401 50.0645 14.2087 50.0645 13.2471C50.0645 12.2946 49.8708 11.5723 49.4834 11.0801C49.1006 10.5833 48.5332 10.335 47.7812 10.335C47.0384 10.335 46.4779 10.5788 46.0996 11.0664C45.7214 11.554 45.5322 12.2809 45.5322 13.2471ZM52.8467 12.5088C52.8467 10.8682 53.0882 9.58984 53.5713 8.67383C54.0544 7.75326 54.82 7.17904 55.8682 6.95117C57.1715 6.67318 58.32 6.44759 59.3135 6.27441L59.5254 7.27246C57.944 7.53678 56.8138 7.74642 56.1348 7.90137C55.474 8.05176 54.9772 8.40723 54.6445 8.96777C54.3164 9.52832 54.1364 10.2917 54.1045 11.2578H54.1865C54.4691 10.875 54.8337 10.5742 55.2803 10.3555C55.7269 10.1367 56.194 10.0273 56.6816 10.0273C57.6022 10.0273 58.32 10.3258 58.835 10.9229C59.3499 11.5199 59.6074 12.347 59.6074 13.4043C59.6074 14.5755 59.3089 15.4915 58.7119 16.1523C58.1149 16.8086 57.2832 17.1367 56.2168 17.1367C55.1641 17.1367 54.3392 16.7334 53.7422 15.9268C53.1452 15.1201 52.8467 13.9808 52.8467 12.5088ZM56.3193 16.1865C57.7093 16.1865 58.4043 15.3001 58.4043 13.5273C58.4043 11.8366 57.7731 10.9912 56.5107 10.9912C56.1644 10.9912 55.8294 11.0641 55.5059 11.21C55.1868 11.3512 54.8929 11.5404 54.624 11.7773C54.3597 12.0143 54.1546 12.2581 54.0088 12.5088C54.0088 13.7074 54.1979 14.6211 54.5762 15.25C54.9544 15.8743 55.5355 16.1865 56.3193 16.1865ZM66.1973 17L65.9717 15.9336H65.917C65.5433 16.403 65.1696 16.722 64.7959 16.8906C64.4268 17.0547 63.9642 17.1367 63.4082 17.1367C62.6654 17.1367 62.082 16.9453 61.6582 16.5625C61.2389 16.1797 61.0293 15.6351 61.0293 14.9287C61.0293 13.4157 62.2393 12.6227 64.6592 12.5498L65.9307 12.5088V12.0439C65.9307 11.4561 65.8031 11.0231 65.5479 10.7451C65.2972 10.4626 64.8939 10.3213 64.3379 10.3213C63.7135 10.3213 63.0072 10.5127 62.2188 10.8955L61.8701 10.0273C62.2393 9.82682 62.6426 9.6696 63.0801 9.55566C63.5221 9.44173 63.9642 9.38477 64.4062 9.38477C65.2995 9.38477 65.9603 9.58301 66.3887 9.97949C66.8216 10.376 67.0381 11.0117 67.0381 11.8867V17H66.1973ZM63.6338 16.2002C64.3402 16.2002 64.8939 16.0065 65.2949 15.6191C65.7005 15.2318 65.9033 14.6895 65.9033 13.9922V13.3154L64.7686 13.3633C63.8662 13.3952 63.2145 13.5365 62.8135 13.7871C62.417 14.0332 62.2188 14.4183 62.2188 14.9424C62.2188 15.3525 62.3418 15.6647 62.5879 15.8789C62.8385 16.0931 63.1872 16.2002 63.6338 16.2002ZM75.46 11.3877C75.46 11.8753 75.3187 12.2467 75.0361 12.502C74.7581 12.7526 74.3662 12.9212 73.8604 13.0078V13.0693C74.4984 13.1559 74.9632 13.3428 75.2549 13.6299C75.5511 13.917 75.6992 14.3135 75.6992 14.8193C75.6992 15.5166 75.4417 16.0544 74.9268 16.4326C74.4163 16.8109 73.6689 17 72.6846 17H69.3828V9.50781H72.6709C74.5303 9.50781 75.46 10.1344 75.46 11.3877ZM74.5645 14.7441C74.5645 14.3385 74.4095 14.0446 74.0996 13.8623C73.7943 13.6755 73.2861 13.582 72.5752 13.582H70.5176V16.0498H72.6025C73.9105 16.0498 74.5645 15.6146 74.5645 14.7441ZM74.3525 11.4971C74.3525 11.1325 74.2113 10.875 73.9287 10.7246C73.6507 10.5697 73.2269 10.4922 72.6572 10.4922H70.5176V12.6045H72.4385C73.1403 12.6045 73.6348 12.5179 73.9219 12.3447C74.209 12.1715 74.3525 11.889 74.3525 11.4971ZM78.4199 9.50781V14.2588L78.3721 15.5029L78.3516 15.8926L82.4053 9.50781H83.8203V17H82.7607V12.4199L82.7812 11.5176L82.8154 10.6289L78.7686 17H77.3535V9.50781H78.4199ZM91.2783 10.4785H88.8447V17H87.71V10.4785H85.3037V9.50781H91.2783V10.4785ZM93.8965 12.6045H96.207C98.1211 12.6045 99.0781 13.3086 99.0781 14.7168C99.0781 15.4551 98.8275 16.0202 98.3262 16.4121C97.8294 16.804 97.1003 17 96.1387 17H92.7617V9.50781H93.8965V12.6045ZM93.8965 13.582V16.0498H96.084C96.6855 16.0498 97.1458 15.945 97.4648 15.7354C97.7839 15.5257 97.9434 15.209 97.9434 14.7852C97.9434 14.3704 97.7952 14.0674 97.499 13.876C97.2074 13.68 96.7243 13.582 96.0498 13.582H93.8965ZM109.052 9.50781H110.296L107.062 13.124L110.562 17H109.236L105.818 13.2061V17H104.684V9.50781H105.818V13.1514L109.052 9.50781ZM118.424 13.2471C118.424 14.4684 118.116 15.4232 117.501 16.1113C116.886 16.7949 116.036 17.1367 114.951 17.1367C114.281 17.1367 113.687 16.9795 113.167 16.665C112.647 16.3506 112.246 15.8994 111.964 15.3115C111.681 14.7236 111.54 14.0355 111.54 13.2471C111.54 12.0257 111.845 11.0755 112.456 10.3965C113.067 9.71289 113.914 9.37109 114.999 9.37109C116.047 9.37109 116.879 9.71973 117.494 10.417C118.114 11.1143 118.424 12.0576 118.424 13.2471ZM112.716 13.2471C112.716 14.2041 112.907 14.9333 113.29 15.4346C113.673 15.9359 114.236 16.1865 114.979 16.1865C115.721 16.1865 116.284 15.9382 116.667 15.4414C117.054 14.9401 117.248 14.2087 117.248 13.2471C117.248 12.2946 117.054 11.5723 116.667 11.0801C116.284 10.5833 115.717 10.335 114.965 10.335C114.222 10.335 113.661 10.5788 113.283 11.0664C112.905 11.554 112.716 12.2809 112.716 13.2471ZM121.555 9.50781V12.6455H125.752V9.50781H126.887V17H125.752V13.623H121.555V17H120.42V9.50781H121.555ZM134.345 10.4785H131.911V17H130.776V10.4785H128.37V9.50781H134.345V10.4785ZM140.436 17L140.21 15.9336H140.155C139.782 16.403 139.408 16.722 139.034 16.8906C138.665 17.0547 138.202 17.1367 137.646 17.1367C136.904 17.1367 136.32 16.9453 135.896 16.5625C135.477 16.1797 135.268 15.6351 135.268 14.9287C135.268 13.4157 136.478 12.6227 138.897 12.5498L140.169 12.5088V12.0439C140.169 11.4561 140.041 11.0231 139.786 10.7451C139.535 10.4626 139.132 10.3213 138.576 10.3213C137.952 10.3213 137.245 10.5127 136.457 10.8955L136.108 10.0273C136.478 9.82682 136.881 9.6696 137.318 9.55566C137.76 9.44173 138.202 9.38477 138.645 9.38477C139.538 9.38477 140.199 9.58301 140.627 9.97949C141.06 10.376 141.276 11.0117 141.276 11.8867V17H140.436ZM137.872 16.2002C138.578 16.2002 139.132 16.0065 139.533 15.6191C139.939 15.2318 140.142 14.6895 140.142 13.9922V13.3154L139.007 13.3633C138.104 13.3952 137.453 13.5365 137.052 13.7871C136.655 14.0332 136.457 14.4183 136.457 14.9424C136.457 15.3525 136.58 15.6647 136.826 15.8789C137.077 16.0931 137.425 16.2002 137.872 16.2002ZM147.989 9.50781H149.233L146 13.124L149.5 17H148.174L144.756 13.2061V17H143.621V9.50781H144.756V13.1514L147.989 9.50781ZM155.946 10.4785H153.513V17H152.378V10.4785H149.972V9.50781H155.946V10.4785Z" fill="black"/>
<circle cx="12" cy="12" r="11.25" stroke="#00C0FF" stroke-width="1.5"/>
<path d="M11 5H13V19H11V5Z" fill="#00C0FF"/>
<path d="M19 11V13L5 13L5 11L19 11Z" fill="#00C0FF"/>
</svg>
