<svg width="30" height="30" viewBox="0 0 30 30" fill="none" xmlns="http://www.w3.org/2000/svg">
<path fill-rule="evenodd" clip-rule="evenodd" d="M18.6632 3.00001L18.75 3.00003L18.8368 3.00001C19.45 2.99986 19.868 2.99976 20.2316 3.07208C21.7192 3.36798 22.882 4.53085 23.1779 6.01844C23.2207 6.23355 23.2382 6.46769 23.2452 6.75003L27.5 6.75003C27.9142 6.75003 28.25 7.08581 28.25 7.50003C28.25 7.91424 27.9142 8.25003 27.5 8.25003L23.2452 8.25003C23.2382 8.53237 23.2207 8.7665 23.1779 8.98162C22.882 10.4692 21.7192 11.6321 20.2316 11.928C19.868 12.0003 19.45 12.0002 18.8368 12H18.8368L18.75 12L18.6632 12H18.6632C18.05 12.0002 17.632 12.0003 17.2684 11.928C15.7808 11.6321 14.618 10.4692 14.3221 8.98162C14.2497 8.61802 14.2498 8.20005 14.25 7.58686V7.58684L14.25 7.50003L14.25 7.41321V7.4132C14.2498 6.8 14.2497 6.38204 14.3221 6.01844C14.618 4.53085 15.7808 3.36798 17.2684 3.07208C17.632 2.99976 18.05 2.99986 18.6632 3.00001ZM21.7068 6.31107C21.7464 6.51016 21.75 6.7671 21.75 7.50003C21.75 8.23296 21.7464 8.4899 21.7068 8.68898C21.5292 9.58154 20.8315 10.2793 19.939 10.4568C19.7399 10.4964 19.4829 10.5 18.75 10.5C18.0171 10.5 17.7601 10.4964 17.561 10.4568C16.6685 10.2793 15.9708 9.58154 15.7932 8.68898C15.7536 8.4899 15.75 8.23296 15.75 7.50003C15.75 6.7671 15.7536 6.51016 15.7932 6.31107C15.9708 5.41852 16.6685 4.7208 17.561 4.54326C17.7601 4.50366 18.0171 4.50003 18.75 4.50003C19.4829 4.50003 19.7399 4.50366 19.939 4.54326C20.8315 4.7208 21.5292 5.41852 21.7068 6.31107ZM2.5 6.75003C2.08579 6.75003 1.75 7.08581 1.75 7.50003C1.75 7.91424 2.08579 8.25003 2.5 8.25003H10C10.4142 8.25003 10.75 7.91424 10.75 7.50003C10.75 7.08581 10.4142 6.75003 10 6.75003H2.5ZM9.91318 18L10 18L10.0868 18H10.0868C10.7 17.9999 11.118 17.9998 11.4816 18.0721C12.9692 18.368 14.132 19.5309 14.4279 21.0184C14.5003 21.382 14.5002 21.8 14.5 22.4132V22.4132L14.5 22.5L14.5 22.5868V22.5869C14.5002 23.2001 14.5003 23.618 14.4279 23.9816C14.132 25.4692 12.9692 26.6321 11.4816 26.928C11.118 27.0003 10.7 27.0002 10.0868 27H10.0868L10 27L9.91319 27H9.91317C9.29997 27.0002 8.88201 27.0003 8.51841 26.928C7.03082 26.6321 5.86796 25.4692 5.57206 23.9816C5.52927 23.7665 5.51183 23.5324 5.50475 23.25H2.5C2.08579 23.25 1.75 22.9142 1.75 22.5C1.75 22.0858 2.08579 21.75 2.5 21.75H5.50475C5.51183 21.4677 5.52927 21.2336 5.57206 21.0184C5.86796 19.5309 7.03082 18.368 8.51841 18.0721C8.88201 17.9998 9.29997 17.9999 9.91317 18H9.91318ZM7.04323 23.689C7.00363 23.4899 7 23.233 7 22.5C7 21.7671 7.00363 21.5102 7.04323 21.3111C7.22077 20.4185 7.91849 19.7208 8.81105 19.5433C9.01013 19.5037 9.26707 19.5 10 19.5C10.7329 19.5 10.9899 19.5037 11.189 19.5433C12.0815 19.7208 12.7792 20.4185 12.9568 21.3111C12.9964 21.5102 13 21.7671 13 22.5C13 23.233 12.9964 23.4899 12.9568 23.689C12.7792 24.5815 12.0815 25.2793 11.189 25.4568C10.9899 25.4964 10.7329 25.5 10 25.5C9.26707 25.5 9.01013 25.4964 8.81105 25.4568C7.91849 25.2793 7.22077 24.5815 7.04323 23.689ZM18.75 21.75C18.3358 21.75 18 22.0858 18 22.5C18 22.9142 18.3358 23.25 18.75 23.25L27.5 23.25C27.9142 23.25 28.25 22.9142 28.25 22.5C28.25 22.0858 27.9142 21.75 27.5 21.75L18.75 21.75Z" fill="#9BB6BF"/>
</svg>
