<svg width="60" height="60" viewBox="0 0 60 60" fill="none" xmlns="http://www.w3.org/2000/svg">
<g filter="url(#filter0_b_4279_3634)">
<rect width="60" height="60" rx="12" fill="url(#paint0_linear_4279_3634)" fill-opacity="0.5"/>
</g>
<g filter="url(#filter1_f_4279_3634)">
<rect x="6" y="6" width="48" height="48" rx="10" fill="url(#paint1_linear_4279_3634)" fill-opacity="0.15"/>
</g>
<rect x="10" y="10" width="40" height="40" rx="10" fill="url(#paint2_linear_4279_3634)"/>
<path fill-rule="evenodd" clip-rule="evenodd" d="M33.6632 18L33.75 18L33.8368 18C34.45 17.9999 34.868 17.9998 35.2316 18.0721C36.7192 18.368 37.882 19.5308 38.1779 21.0184C38.2207 21.2336 38.2382 21.4677 38.2452 21.75L42.5 21.75C42.9142 21.75 43.25 22.0858 43.25 22.5C43.25 22.9142 42.9142 23.25 42.5 23.25L38.2452 23.25C38.2382 23.5324 38.2207 23.7665 38.1779 23.9816C37.882 25.4692 36.7192 26.6321 35.2316 26.928C34.868 27.0003 34.45 27.0002 33.8368 27H33.8368L33.75 27L33.6632 27H33.6632C33.05 27.0002 32.632 27.0003 32.2684 26.928C30.7808 26.6321 29.618 25.4692 29.3221 23.9816C29.2497 23.618 29.2498 23.2001 29.25 22.5869V22.5868L29.25 22.5L29.25 22.4132V22.4132C29.2498 21.8 29.2497 21.382 29.3221 21.0184C29.618 19.5308 30.7808 18.368 32.2684 18.0721C32.632 17.9998 33.05 17.9999 33.6632 18ZM36.7068 21.3111C36.7464 21.5102 36.75 21.7671 36.75 22.5C36.75 23.233 36.7464 23.4899 36.7068 23.689C36.5292 24.5815 35.8315 25.2793 34.939 25.4568C34.7399 25.4964 34.4829 25.5 33.75 25.5C33.0171 25.5 32.7601 25.4964 32.561 25.4568C31.6685 25.2793 30.9708 24.5815 30.7932 23.689C30.7536 23.4899 30.75 23.233 30.75 22.5C30.75 21.7671 30.7536 21.5102 30.7932 21.3111C30.9708 20.4185 31.6685 19.7208 32.561 19.5433C32.7601 19.5037 33.0171 19.5 33.75 19.5C34.4829 19.5 34.7399 19.5037 34.939 19.5433C35.8315 19.7208 36.5292 20.4185 36.7068 21.3111ZM17.5 21.75C17.0858 21.75 16.75 22.0858 16.75 22.5C16.75 22.9142 17.0858 23.25 17.5 23.25H25C25.4142 23.25 25.75 22.9142 25.75 22.5C25.75 22.0858 25.4142 21.75 25 21.75H17.5ZM24.9132 33L25 33L25.0868 33H25.0868C25.7 32.9999 26.118 32.9998 26.4816 33.0721C27.9692 33.368 29.132 34.5309 29.4279 36.0184C29.5003 36.382 29.5002 36.8 29.5 37.4132V37.4132L29.5 37.5L29.5 37.5868V37.5869C29.5002 38.2001 29.5003 38.618 29.4279 38.9816C29.132 40.4692 27.9692 41.6321 26.4816 41.928C26.118 42.0003 25.7 42.0002 25.0868 42H25.0868L25 42L24.9132 42H24.9132C24.3 42.0002 23.882 42.0003 23.5184 41.928C22.0308 41.6321 20.868 40.4692 20.5721 38.9816C20.5293 38.7665 20.5118 38.5324 20.5048 38.25H17.5C17.0858 38.25 16.75 37.9142 16.75 37.5C16.75 37.0858 17.0858 36.75 17.5 36.75H20.5048C20.5118 36.4677 20.5293 36.2336 20.5721 36.0184C20.868 34.5309 22.0308 33.368 23.5184 33.0721C23.882 32.9998 24.3 32.9999 24.9132 33H24.9132ZM22.0432 38.689C22.0036 38.4899 22 38.233 22 37.5C22 36.7671 22.0036 36.5102 22.0432 36.3111C22.2208 35.4185 22.9185 34.7208 23.811 34.5433C24.0101 34.5037 24.2671 34.5 25 34.5C25.7329 34.5 25.9899 34.5037 26.189 34.5433C27.0815 34.7208 27.7792 35.4185 27.9568 36.3111C27.9964 36.5102 28 36.7671 28 37.5C28 38.233 27.9964 38.4899 27.9568 38.689C27.7792 39.5815 27.0815 40.2793 26.189 40.4568C25.9899 40.4964 25.7329 40.5 25 40.5C24.2671 40.5 24.0101 40.4964 23.811 40.4568C22.9185 40.2793 22.2208 39.5815 22.0432 38.689ZM33.75 36.75C33.3358 36.75 33 37.0858 33 37.5C33 37.9142 33.3358 38.25 33.75 38.25L42.5 38.25C42.9142 38.25 43.25 37.9142 43.25 37.5C43.25 37.0858 42.9142 36.75 42.5 36.75L33.75 36.75Z" fill="white"/>
<defs>
<filter id="filter0_b_4279_3634" x="-5" y="-5" width="70" height="70" filterUnits="userSpaceOnUse" color-interpolation-filters="sRGB">
<feFlood flood-opacity="0" result="BackgroundImageFix"/>
<feGaussianBlur in="BackgroundImageFix" stdDeviation="2.5"/>
<feComposite in2="SourceAlpha" operator="in" result="effect1_backgroundBlur_4279_3634"/>
<feBlend mode="normal" in="SourceGraphic" in2="effect1_backgroundBlur_4279_3634" result="shape"/>
</filter>
<filter id="filter1_f_4279_3634" x="1" y="1" width="58" height="58" filterUnits="userSpaceOnUse" color-interpolation-filters="sRGB">
<feFlood flood-opacity="0" result="BackgroundImageFix"/>
<feBlend mode="normal" in="SourceGraphic" in2="BackgroundImageFix" result="shape"/>
<feGaussianBlur stdDeviation="2.5" result="effect1_foregroundBlur_4279_3634"/>
</filter>
<linearGradient id="paint0_linear_4279_3634" x1="0" y1="0" x2="60" y2="57" gradientUnits="userSpaceOnUse">
<stop offset="0.0132289" stop-color="#E3F8FF"/>
<stop offset="1" stop-color="#C6F1FF"/>
</linearGradient>
<linearGradient id="paint1_linear_4279_3634" x1="6" y1="6" x2="54" y2="51.6" gradientUnits="userSpaceOnUse">
<stop offset="0.0132289" stop-color="#00C0FF"/>
<stop offset="0.580971" stop-color="#5BD6FF"/>
<stop offset="1" stop-color="#00C0FF"/>
</linearGradient>
<linearGradient id="paint2_linear_4279_3634" x1="10" y1="10" x2="50" y2="48" gradientUnits="userSpaceOnUse">
<stop offset="0.0132289" stop-color="#00C0FF"/>
<stop offset="0.580971" stop-color="#5BD6FF"/>
<stop offset="1" stop-color="#00C0FF"/>
</linearGradient>
</defs>
</svg>
