<svg width="88" height="43" viewBox="0 0 88 43" fill="none" xmlns="http://www.w3.org/2000/svg">
<path d="M25.5479 31.4999C25.5479 25.977 30.025 21.4999 35.5479 21.4999H52.4511C57.9739 21.4999 62.4511 25.977 62.4511 31.4999V42.4999C62.4511 42.776 62.2272 42.9999 61.9511 42.9999H26.0479C25.7717 42.9999 25.5479 42.776 25.5479 42.4999V31.4999Z" fill="#00C0FF"/>
<ellipse cx="43.9992" cy="9.21429" rx="9.22581" ry="9.21429" fill="#00C0FF"/>
<path d="M66 31.5002C66 25.9774 70.4772 21.5002 76 21.5002H78C83.5228 21.5002 88 25.9774 88 31.5002V33.8176C88 34.0937 87.7761 34.3176 87.5 34.3176H66.5C66.2239 34.3176 66 34.0937 66 33.8176V31.5002Z" fill="#00C0FF"/>
<ellipse cx="77" cy="14.1759" rx="5.5" ry="5.49313" fill="#00C0FF"/>
<path d="M0 31.5002C0 25.9774 4.47715 21.5002 10 21.5002H12C17.5228 21.5002 22 25.9774 22 31.5002V33.8176C22 34.0937 21.7761 34.3176 21.5 34.3176H0.5C0.223857 34.3176 0 34.0937 0 33.8176V31.5002Z" fill="#00C0FF"/>
<ellipse cx="11" cy="14.1759" rx="5.5" ry="5.49313" fill="#00C0FF"/>
</svg>
