<svg width="30" height="30" viewBox="0 0 30 30" fill="none" xmlns="http://www.w3.org/2000/svg">
<path fill-rule="evenodd" clip-rule="evenodd" d="M15.5 3.25209C15.316 3.25032 15.1021 3.25002 14.849 3.25002H11.4C10.2675 3.25002 9.46327 3.2506 8.83388 3.30203C8.21325 3.35273 7.829 3.44911 7.52453 3.60425C6.913 3.91584 6.41582 4.41303 6.10423 5.02455C5.94909 5.32902 5.85271 5.71328 5.80201 6.3339C5.75058 6.96329 5.75 7.76754 5.75 8.90002V21.1C5.75 22.2325 5.75058 23.0368 5.80201 23.6661C5.85271 24.2868 5.94909 24.671 6.10423 24.9755C6.41582 25.587 6.913 26.0842 7.52453 26.3958C7.829 26.5509 8.21325 26.6473 8.83388 26.698C9.46327 26.7494 10.2675 26.75 11.4 26.75H18.6C19.7325 26.75 20.5367 26.7494 21.1661 26.698C21.7867 26.6473 22.171 26.5509 22.4755 26.3958C23.087 26.0842 23.5842 25.587 23.8958 24.9755C24.0509 24.671 24.1473 24.2868 24.198 23.6661C24.2494 23.0368 24.25 22.2325 24.25 21.1V12.9925C24.25 12.5476 24.2491 12.2379 24.24 12H23.75H19.45H19.4196H19.4196C18.8854 12 18.4396 12 18.0753 11.9703C17.6954 11.9392 17.3388 11.8721 17.0015 11.7003C16.4841 11.4366 16.0634 11.0159 15.7997 10.4985C15.6279 10.1612 15.5608 9.80458 15.5297 9.42469C15.5 9.06046 15.5 8.61461 15.5 8.08046V8.05002V3.75002V3.25209ZM23.8259 10.5C23.6707 10.2319 23.4412 9.95884 22.8898 9.31557L20.6993 6.75998L18.8442 4.90487C18.1271 4.18782 17.8516 3.91914 17.5413 3.72894C17.3692 3.62351 17.188 3.5345 17 3.46289V3.75002V8.05002C17 8.62245 17.0006 9.00666 17.0248 9.30254C17.0482 9.58967 17.0901 9.72695 17.1362 9.81751C17.2561 10.0527 17.4473 10.2439 17.6825 10.3638C17.7731 10.4099 17.9104 10.4518 18.1975 10.4753C18.4934 10.4994 18.8776 10.5 19.45 10.5H23.75H23.8259ZM16.952 1.88126C16.4042 1.74976 15.8314 1.74986 14.9426 1.75001L14.849 1.75002H11.4L11.367 1.75002C10.2749 1.75002 9.40936 1.75001 8.71173 1.80701C7.99835 1.86529 7.39472 1.9869 6.84355 2.26774C5.94978 2.72314 5.22312 3.4498 4.76772 4.34357C4.48688 4.89474 4.36527 5.49837 4.30699 6.21175C4.24999 6.90938 4.24999 7.77488 4.25 8.86702L4.25 8.90002V21.1L4.25 21.133C4.24999 22.2252 4.24999 23.0907 4.30699 23.7883C4.36527 24.5017 4.48688 25.1053 4.76772 25.6565C5.22312 26.5502 5.94978 27.2769 6.84355 27.7323C7.39472 28.0131 7.99834 28.1347 8.71173 28.193C9.40935 28.25 10.2748 28.25 11.367 28.25H11.4H18.6H18.633C19.7252 28.25 20.5906 28.25 21.2883 28.193C22.0017 28.1347 22.6053 28.0131 23.1565 27.7323C24.0502 27.2769 24.7769 26.5502 25.2323 25.6565C25.5131 25.1053 25.6347 24.5017 25.693 23.7883C25.75 23.0907 25.75 22.2252 25.75 21.133V21.1V12.9925L25.75 12.9091V12.909C25.7501 12.1124 25.7502 11.5989 25.6431 11.1025C25.5482 10.6631 25.3915 10.2393 25.1775 9.84398C24.9358 9.39737 24.6016 9.00752 24.083 8.40274L24.0287 8.33938L21.8194 5.76193C21.8069 5.74735 21.7939 5.73326 21.7803 5.71969L19.9048 3.84421L19.8387 3.77806C19.2103 3.14944 18.8053 2.74432 18.325 2.44998C17.9 2.18954 17.4367 1.99762 16.952 1.88126ZM11.25 15.5C10.8358 15.5 10.5 15.8358 10.5 16.25C10.5 16.6642 10.8358 17 11.25 17H18.75C19.1642 17 19.5 16.6642 19.5 16.25C19.5 15.8358 19.1642 15.5 18.75 15.5H11.25ZM10.5 21.25C10.5 20.8358 10.8358 20.5 11.25 20.5H16.25C16.6642 20.5 17 20.8358 17 21.25C17 21.6642 16.6642 22 16.25 22H11.25C10.8358 22 10.5 21.6642 10.5 21.25Z" fill="#9BB6BF"/>
</svg>
