<svg width="60" height="60" viewBox="0 0 60 60" fill="none" xmlns="http://www.w3.org/2000/svg">
<g filter="url(#filter0_b_4279_3510)">
<rect width="60" height="60" rx="12" fill="url(#paint0_linear_4279_3510)" fill-opacity="0.5"/>
</g>
<g filter="url(#filter1_f_4279_3510)">
<rect x="6" y="6" width="48" height="48" rx="10" fill="url(#paint1_linear_4279_3510)" fill-opacity="0.15"/>
</g>
<rect x="10" y="10" width="40" height="40" rx="8" fill="url(#paint2_linear_4279_3510)"/>
<path fill-rule="evenodd" clip-rule="evenodd" d="M30.5 18.2521C30.316 18.2503 30.1021 18.25 29.849 18.25H26.4C25.2675 18.25 24.4633 18.2506 23.8339 18.302C23.2133 18.3527 22.829 18.4491 22.5245 18.6042C21.913 18.9158 21.4158 19.413 21.1042 20.0246C20.9491 20.329 20.8527 20.7133 20.802 21.3339C20.7506 21.9633 20.75 22.7675 20.75 23.9V36.1C20.75 37.2325 20.7506 38.0368 20.802 38.6661C20.8527 39.2868 20.9491 39.671 21.1042 39.9755C21.4158 40.587 21.913 41.0842 22.5245 41.3958C22.829 41.5509 23.2133 41.6473 23.8339 41.698C24.4633 41.7494 25.2675 41.75 26.4 41.75H33.6C34.7325 41.75 35.5367 41.7494 36.1661 41.698C36.7867 41.6473 37.171 41.5509 37.4755 41.3958C38.087 41.0842 38.5842 40.587 38.8958 39.9755C39.0509 39.671 39.1473 39.2868 39.198 38.6661C39.2494 38.0368 39.25 37.2325 39.25 36.1V27.9925C39.25 27.5476 39.2491 27.2379 39.24 27H38.75H34.45H34.4196H34.4196C33.8854 27 33.4396 27 33.0753 26.9703C32.6954 26.9392 32.3388 26.8721 32.0015 26.7003C31.4841 26.4366 31.0634 26.0159 30.7997 25.4985C30.6279 25.1612 30.5608 24.8046 30.5297 24.4247C30.5 24.0605 30.5 23.6146 30.5 23.0805V23.05V18.75V18.2521ZM38.8259 25.5C38.6707 25.2319 38.4412 24.9588 37.8898 24.3156L35.6993 21.76L33.8442 19.9049C33.1271 19.1878 32.8516 18.9191 32.5413 18.7289C32.3692 18.6235 32.188 18.5345 32 18.4629V18.75V23.05C32 23.6224 32.0006 24.0067 32.0248 24.3025C32.0482 24.5897 32.0901 24.7269 32.1362 24.8175C32.2561 25.0527 32.4473 25.2439 32.6825 25.3638C32.7731 25.4099 32.9104 25.4518 33.1975 25.4753C33.4934 25.4994 33.8776 25.5 34.45 25.5H38.75H38.8259ZM31.952 16.8813C31.4042 16.7498 30.8314 16.7499 29.9426 16.75L29.849 16.75H26.4L26.367 16.75C25.2749 16.75 24.4094 16.75 23.7117 16.807C22.9983 16.8653 22.3947 16.9869 21.8435 17.2677C20.9498 17.7231 20.2231 18.4498 19.7677 19.3436C19.4869 19.8947 19.3653 20.4984 19.307 21.2118C19.25 21.9094 19.25 22.7749 19.25 23.867L19.25 23.9V36.1L19.25 36.133C19.25 37.2252 19.25 38.0907 19.307 38.7883C19.3653 39.5017 19.4869 40.1053 19.7677 40.6565C20.2231 41.5502 20.9498 42.2769 21.8435 42.7323C22.3947 43.0131 22.9983 43.1347 23.7117 43.193C24.4094 43.25 25.2748 43.25 26.367 43.25H26.4H33.6H33.633C34.7252 43.25 35.5906 43.25 36.2883 43.193C37.0017 43.1347 37.6053 43.0131 38.1565 42.7323C39.0502 42.2769 39.7769 41.5502 40.2323 40.6565C40.5131 40.1053 40.6347 39.5017 40.693 38.7883C40.75 38.0907 40.75 37.2252 40.75 36.133V36.1V27.9925L40.75 27.9091V27.909C40.7501 27.1124 40.7502 26.5989 40.6431 26.1025C40.5482 25.6631 40.3915 25.2393 40.1775 24.844C39.9358 24.3974 39.6016 24.0075 39.083 23.4027L39.0287 23.3394L36.8194 20.7619C36.8069 20.7474 36.7939 20.7333 36.7803 20.7197L34.9048 18.8442L34.8387 18.7781C34.2103 18.1494 33.8053 17.7443 33.325 17.45C32.9 17.1895 32.4367 16.9976 31.952 16.8813ZM26.25 30.5C25.8358 30.5 25.5 30.8358 25.5 31.25C25.5 31.6642 25.8358 32 26.25 32H33.75C34.1642 32 34.5 31.6642 34.5 31.25C34.5 30.8358 34.1642 30.5 33.75 30.5H26.25ZM25.5 36.25C25.5 35.8358 25.8358 35.5 26.25 35.5H31.25C31.6642 35.5 32 35.8358 32 36.25C32 36.6642 31.6642 37 31.25 37H26.25C25.8358 37 25.5 36.6642 25.5 36.25Z" fill="white"/>
<defs>
<filter id="filter0_b_4279_3510" x="-5" y="-5" width="70" height="70" filterUnits="userSpaceOnUse" color-interpolation-filters="sRGB">
<feFlood flood-opacity="0" result="BackgroundImageFix"/>
<feGaussianBlur in="BackgroundImageFix" stdDeviation="2.5"/>
<feComposite in2="SourceAlpha" operator="in" result="effect1_backgroundBlur_4279_3510"/>
<feBlend mode="normal" in="SourceGraphic" in2="effect1_backgroundBlur_4279_3510" result="shape"/>
</filter>
<filter id="filter1_f_4279_3510" x="1" y="1" width="58" height="58" filterUnits="userSpaceOnUse" color-interpolation-filters="sRGB">
<feFlood flood-opacity="0" result="BackgroundImageFix"/>
<feBlend mode="normal" in="SourceGraphic" in2="BackgroundImageFix" result="shape"/>
<feGaussianBlur stdDeviation="2.5" result="effect1_foregroundBlur_4279_3510"/>
</filter>
<linearGradient id="paint0_linear_4279_3510" x1="0" y1="0" x2="60" y2="57" gradientUnits="userSpaceOnUse">
<stop offset="0.0132289" stop-color="#E3F8FF"/>
<stop offset="1" stop-color="#C6F1FF"/>
</linearGradient>
<linearGradient id="paint1_linear_4279_3510" x1="6" y1="6" x2="54" y2="51.6" gradientUnits="userSpaceOnUse">
<stop offset="0.0132289" stop-color="#00C0FF"/>
<stop offset="0.580971" stop-color="#5BD6FF"/>
<stop offset="1" stop-color="#00C0FF"/>
</linearGradient>
<linearGradient id="paint2_linear_4279_3510" x1="10" y1="10" x2="50" y2="48" gradientUnits="userSpaceOnUse">
<stop offset="0.0132289" stop-color="#00C0FF"/>
<stop offset="0.580971" stop-color="#5BD6FF"/>
<stop offset="1" stop-color="#00C0FF"/>
</linearGradient>
</defs>
</svg>
