<svg width="40" height="40" viewBox="0 0 40 40" fill="none" xmlns="http://www.w3.org/2000/svg">
<circle cx="20" cy="20" r="20" fill="#D74A4A"/>
<path d="M11.6608 13.8843C11.0467 13.2702 11.0467 12.2745 11.6608 11.6604C12.2749 11.0463 13.2705 11.0463 13.8846 11.6604L28.3396 26.1153C28.9537 26.7294 28.9537 27.725 28.3396 28.3391C27.7255 28.9532 26.7299 28.9532 26.1158 28.3391L11.6608 13.8843Z" fill="white"/>
<path d="M26.1158 11.6603C26.7299 11.0462 27.7255 11.0462 28.3396 11.6603C28.9537 12.2744 28.9537 13.27 28.3396 13.8841L13.8846 28.339C13.2705 28.9531 12.2749 28.9531 11.6608 28.339C11.0467 27.7249 11.0467 26.7293 11.6608 26.1152L26.1158 11.6603Z" fill="white"/>
</svg>
