<svg width="30" height="30" viewBox="0 0 30 30" fill="none" xmlns="http://www.w3.org/2000/svg">
<path d="M27.5 17.1875C27.5 11.4921 22.8829 6.875 17.1875 6.875C11.4921 6.875 6.875 11.4921 6.875 17.1875V26.6909C6.875 27.0626 7.2662 27.3044 7.59865 27.1381L10.999 25.4375C12.7227 26.7326 14.8655 27.5 17.1875 27.5C22.8829 27.5 27.5 22.8829 27.5 17.1875Z" stroke="#9BB6BF" stroke-width="1.5"/>
<path d="M22.9193 18.3337C23.5521 18.3337 24.0651 17.8207 24.0651 17.1878C24.0651 16.555 23.5521 16.042 22.9193 16.042C22.2864 16.042 21.7734 16.555 21.7734 17.1878C21.7734 17.8207 22.2864 18.3337 22.9193 18.3337Z" fill="#9BB6BF"/>
<path d="M17.1905 18.3337C17.8233 18.3337 18.3363 17.8207 18.3363 17.1878C18.3363 16.555 17.8233 16.042 17.1905 16.042C16.5577 16.042 16.0447 16.555 16.0447 17.1878C16.0447 17.8207 16.5577 18.3337 17.1905 18.3337Z" fill="#9BB6BF"/>
<path d="M11.4619 18.3337C12.0947 18.3337 12.6077 17.8207 12.6077 17.1878C12.6077 16.555 12.0947 16.042 11.4619 16.042C10.829 16.042 10.316 16.555 10.316 17.1878C10.316 17.8207 10.829 18.3337 11.4619 18.3337Z" fill="#9BB6BF"/>
<path d="M6.62399 21.0625L3.22365 22.7631C2.8912 22.9294 2.5 22.6876 2.5 22.3159V12.8125C2.5 7.11706 7.11706 2.5 12.8125 2.5C16.82 2.5 20.2936 4.78593 22.0005 8.125" stroke="#9BB6BF" stroke-width="1.5"/>
</svg>
