<svg width="60" height="60" viewBox="0 0 60 60" fill="none" xmlns="http://www.w3.org/2000/svg">
<g filter="url(#filter0_b_4279_3542)">
<rect width="60" height="60" rx="12" fill="url(#paint0_linear_4279_3542)" fill-opacity="0.5"/>
</g>
<g filter="url(#filter1_f_4279_3542)">
<rect x="6" y="6" width="48" height="48" rx="10" fill="url(#paint1_linear_4279_3542)" fill-opacity="0.15"/>
</g>
<rect x="10" y="10" width="40" height="40" rx="8" fill="url(#paint2_linear_4279_3542)"/>
<path d="M42.5 32.1875C42.5 26.4921 37.8829 21.875 32.1875 21.875C26.4921 21.875 21.875 26.4921 21.875 32.1875V41.6909C21.875 42.0626 22.2662 42.3044 22.5987 42.1381L25.999 40.4375C27.7227 41.7326 29.8655 42.5 32.1875 42.5C37.8829 42.5 42.5 37.8829 42.5 32.1875Z" stroke="white" stroke-width="1.5"/>
<path d="M37.9193 33.3337C38.5521 33.3337 39.0651 32.8207 39.0651 32.1878C39.0651 31.555 38.5521 31.042 37.9193 31.042C37.2864 31.042 36.7734 31.555 36.7734 32.1878C36.7734 32.8207 37.2864 33.3337 37.9193 33.3337Z" fill="white"/>
<path d="M32.1905 33.3337C32.8233 33.3337 33.3363 32.8207 33.3363 32.1878C33.3363 31.555 32.8233 31.042 32.1905 31.042C31.5577 31.042 31.0447 31.555 31.0447 32.1878C31.0447 32.8207 31.5577 33.3337 32.1905 33.3337Z" fill="white"/>
<path d="M26.4619 33.3337C27.0947 33.3337 27.6077 32.8207 27.6077 32.1878C27.6077 31.555 27.0947 31.042 26.4619 31.042C25.829 31.042 25.316 31.555 25.316 32.1878C25.316 32.8207 25.829 33.3337 26.4619 33.3337Z" fill="white"/>
<path d="M21.624 36.0625L18.2237 37.7631C17.8912 37.9294 17.5 37.6876 17.5 37.3159V27.8125C17.5 22.1171 22.1171 17.5 27.8125 17.5C31.82 17.5 35.2936 19.7859 37.0005 23.125" stroke="white" stroke-width="1.5"/>
<defs>
<filter id="filter0_b_4279_3542" x="-5" y="-5" width="70" height="70" filterUnits="userSpaceOnUse" color-interpolation-filters="sRGB">
<feFlood flood-opacity="0" result="BackgroundImageFix"/>
<feGaussianBlur in="BackgroundImageFix" stdDeviation="2.5"/>
<feComposite in2="SourceAlpha" operator="in" result="effect1_backgroundBlur_4279_3542"/>
<feBlend mode="normal" in="SourceGraphic" in2="effect1_backgroundBlur_4279_3542" result="shape"/>
</filter>
<filter id="filter1_f_4279_3542" x="1" y="1" width="58" height="58" filterUnits="userSpaceOnUse" color-interpolation-filters="sRGB">
<feFlood flood-opacity="0" result="BackgroundImageFix"/>
<feBlend mode="normal" in="SourceGraphic" in2="BackgroundImageFix" result="shape"/>
<feGaussianBlur stdDeviation="2.5" result="effect1_foregroundBlur_4279_3542"/>
</filter>
<linearGradient id="paint0_linear_4279_3542" x1="0" y1="0" x2="60" y2="57" gradientUnits="userSpaceOnUse">
<stop offset="0.0132289" stop-color="#E3F8FF"/>
<stop offset="1" stop-color="#C6F1FF"/>
</linearGradient>
<linearGradient id="paint1_linear_4279_3542" x1="6" y1="6" x2="54" y2="51.6" gradientUnits="userSpaceOnUse">
<stop offset="0.0132289" stop-color="#00C0FF"/>
<stop offset="0.580971" stop-color="#5BD6FF"/>
<stop offset="1" stop-color="#00C0FF"/>
</linearGradient>
<linearGradient id="paint2_linear_4279_3542" x1="10" y1="10" x2="50" y2="48" gradientUnits="userSpaceOnUse">
<stop offset="0.0132289" stop-color="#00C0FF"/>
<stop offset="0.580971" stop-color="#5BD6FF"/>
<stop offset="1" stop-color="#00C0FF"/>
</linearGradient>
</defs>
</svg>
