<svg width="60" height="60" viewBox="0 0 60 60" fill="none" xmlns="http://www.w3.org/2000/svg">
<g filter="url(#filter0_b_4279_3752)">
<rect width="60" height="60" rx="12" fill="url(#paint0_linear_4279_3752)" fill-opacity="0.5"/>
</g>
<g filter="url(#filter1_f_4279_3752)">
<rect x="6" y="6" width="48" height="48" rx="10" fill="url(#paint1_linear_4279_3752)" fill-opacity="0.15"/>
</g>
<rect x="10" y="10" width="40" height="40" rx="10" fill="url(#paint2_linear_4279_3752)"/>
<path d="M18.75 40.5V26.8408C18.75 26.2071 19.0503 25.6109 19.5595 25.2337L28.8095 18.3818C29.5167 17.858 30.4833 17.858 31.1905 18.3818L40.4405 25.2337C40.9497 25.6109 41.25 26.2071 41.25 26.8408V40.5C41.25 41.6046 40.3546 42.5 39.25 42.5H20.75C19.6454 42.5 18.75 41.6046 18.75 40.5Z" stroke="white" stroke-width="1.5"/>
<defs>
<filter id="filter0_b_4279_3752" x="-5" y="-5" width="70" height="70" filterUnits="userSpaceOnUse" color-interpolation-filters="sRGB">
<feFlood flood-opacity="0" result="BackgroundImageFix"/>
<feGaussianBlur in="BackgroundImageFix" stdDeviation="2.5"/>
<feComposite in2="SourceAlpha" operator="in" result="effect1_backgroundBlur_4279_3752"/>
<feBlend mode="normal" in="SourceGraphic" in2="effect1_backgroundBlur_4279_3752" result="shape"/>
</filter>
<filter id="filter1_f_4279_3752" x="1" y="1" width="58" height="58" filterUnits="userSpaceOnUse" color-interpolation-filters="sRGB">
<feFlood flood-opacity="0" result="BackgroundImageFix"/>
<feBlend mode="normal" in="SourceGraphic" in2="BackgroundImageFix" result="shape"/>
<feGaussianBlur stdDeviation="2.5" result="effect1_foregroundBlur_4279_3752"/>
</filter>
<linearGradient id="paint0_linear_4279_3752" x1="0" y1="0" x2="60" y2="57" gradientUnits="userSpaceOnUse">
<stop offset="0.0132289" stop-color="#E3F8FF"/>
<stop offset="1" stop-color="#C6F1FF"/>
</linearGradient>
<linearGradient id="paint1_linear_4279_3752" x1="6" y1="6" x2="54" y2="51.6" gradientUnits="userSpaceOnUse">
<stop offset="0.0132289" stop-color="#00C0FF"/>
<stop offset="0.580971" stop-color="#5BD6FF"/>
<stop offset="1" stop-color="#00C0FF"/>
</linearGradient>
<linearGradient id="paint2_linear_4279_3752" x1="10" y1="10" x2="50" y2="48" gradientUnits="userSpaceOnUse">
<stop offset="0.0132289" stop-color="#00C0FF"/>
<stop offset="0.580971" stop-color="#5BD6FF"/>
<stop offset="1" stop-color="#00C0FF"/>
</linearGradient>
</defs>
</svg>
