<svg width="48" height="48" viewBox="0 0 48 48" fill="none" xmlns="http://www.w3.org/2000/svg">
<g clip-path="url(#clip0_3878_3398)">
<path d="M42.758 33.826C39.734 31.27 38 27.534 38 23.576V18C38 10.962 32.772 5.136 26 4.16V2C26 0.894 25.104 0 24 0C22.896 0 22 0.894 22 2V4.16C15.226 5.136 10 10.962 10 18V23.576C10 27.534 8.266 31.27 5.224 33.842C4.446 34.508 4 35.476 4 36.5C4 38.43 5.57 40 7.5 40H40.5C42.43 40 44 38.43 44 36.5C44 35.476 43.554 34.508 42.758 33.826Z" fill="#00C0FF"/>
<path d="M24 48C27.622 48 30.652 45.418 31.348 42H16.652C17.348 45.418 20.378 48 24 48Z" fill="#00C0FF"/>
</g>
<defs>
<clipPath id="clip0_3878_3398">
<rect width="48" height="48" fill="white"/>
</clipPath>
</defs>
</svg>
