<svg width="32" height="32" viewBox="0 0 32 32" fill="none" xmlns="http://www.w3.org/2000/svg">
<path d="M29.332 18.333C29.332 12.2579 24.4072 7.33301 18.332 7.33301C12.2569 7.33301 7.33203 12.2579 7.33203 18.333V28.5239C7.33203 28.8956 7.72323 29.1374 8.05568 28.9711L11.731 27.133C13.5696 28.5144 15.8552 29.333 18.332 29.333C24.4072 29.333 29.332 24.4081 29.332 18.333Z" stroke="#00C0FF" stroke-width="1.5"/>
<path d="M24.4468 19.5563C25.1218 19.5563 25.6691 19.0091 25.6691 18.334C25.6691 17.659 25.1218 17.1118 24.4468 17.1118C23.7718 17.1118 23.2246 17.659 23.2246 18.334C23.2246 19.0091 23.7718 19.5563 24.4468 19.5563Z" fill="#00C0FF"/>
<path d="M18.3355 19.5563C19.0105 19.5563 19.5577 19.0091 19.5577 18.334C19.5577 17.659 19.0105 17.1118 18.3355 17.1118C17.6605 17.1118 17.1133 17.659 17.1133 18.334C17.1133 19.0091 17.6605 19.5563 18.3355 19.5563Z" fill="#00C0FF"/>
<path d="M12.2261 19.5563C12.9011 19.5563 13.4484 19.0091 13.4484 18.334C13.4484 17.659 12.9011 17.1118 12.2261 17.1118C11.5511 17.1118 11.0039 17.659 11.0039 18.334C11.0039 19.0091 11.5511 19.5563 12.2261 19.5563Z" fill="#00C0FF"/>
<path d="M7.06494 22.4665L3.38967 24.3046C3.05721 24.4709 2.66602 24.2291 2.66602 23.8574V13.6665C2.66602 7.59137 7.59088 2.6665 13.666 2.6665C17.9407 2.6665 21.6459 5.10483 23.4666 8.6665" stroke="#00C0FF" stroke-width="1.5"/>
</svg>
