<svg width="97" height="62" viewBox="0 0 97 62" fill="none" xmlns="http://www.w3.org/2000/svg">
<rect y="37" width="40" height="25" rx="2" fill="url(#paint0_linear_4159_3015)"/>
<path d="M12.0809 45.8413C12.0809 47.0544 11.0318 48.0852 9.67764 48.0852C8.32343 48.0852 7.27441 47.0544 7.27441 45.8413C7.27441 44.6283 8.32343 43.5974 9.67764 43.5974C11.0318 43.5974 12.0809 44.6283 12.0809 45.8413Z" stroke="white" stroke-linecap="round"/>
<path d="M14.8389 54.0733V54.0733C14.8389 51.6786 12.8976 49.7373 10.5028 49.7373H9.1749C6.78017 49.7373 4.83887 51.6786 4.83887 54.0733V54.0733" stroke="white" stroke-linecap="round"/>
<rect x="5.4834" y="55.2925" width="8.70968" height="0.914634" rx="0.457317" fill="white"/>
<rect x="19.3535" y="44.0122" width="15.8065" height="1.21951" rx="0.609756" fill="white"/>
<rect x="19.3535" y="46.7559" width="11.9355" height="1.21951" rx="0.609756" fill="white"/>
<rect x="19.3535" y="49.5" width="15.8065" height="1.21951" rx="0.609756" fill="white"/>
<rect x="19.3535" y="52.2441" width="11.6129" height="1.21951" rx="0.609756" fill="white"/>
<rect x="32.2578" y="52.2441" width="2.90323" height="1.21951" rx="0.609756" fill="white"/>
<path d="M70.6059 29.8655C74.7306 29.8655 78.3022 28.3939 81.2205 25.4905C84.1387 22.5876 85.6181 19.0357 85.6181 14.9323C85.6181 10.8302 84.1387 7.27787 81.22 4.37401C78.3013 1.47156 74.7301 0 70.6059 0C66.4808 0 62.9101 1.47156 59.9918 4.37448C57.0736 7.2774 55.5938 10.8298 55.5938 14.9323C55.5938 19.0357 57.0736 22.5881 59.9923 25.491C62.911 28.3934 66.4822 29.8655 70.6059 29.8655Z" fill="#00C0FF"/>
<path d="M96.874 47.6746C96.7898 46.4665 96.6196 45.1487 96.369 43.7571C96.116 42.3551 95.7903 41.0297 95.4003 39.8183C94.9976 38.5662 94.4498 37.3297 93.7726 36.1448C93.0698 34.9149 92.2443 33.844 91.318 32.9628C90.3494 32.0409 89.1634 31.2997 87.792 30.759C86.4254 30.2212 84.9109 29.9487 83.2908 29.9487C82.6545 29.9487 82.0392 30.2084 80.8509 30.978C80.1195 31.4524 79.2641 32.0011 78.3092 32.608C77.4927 33.1255 76.3867 33.6104 75.0205 34.0493C73.6876 34.4783 72.3343 34.6959 70.9986 34.6959C69.6628 34.6959 68.31 34.4783 66.9757 34.0493C65.6109 33.6108 64.5049 33.126 63.6894 32.6085C62.7435 32.0073 61.8876 31.4586 61.1453 30.9775C59.9584 30.2079 59.3426 29.9482 58.7064 29.9482C57.0858 29.9482 55.5718 30.2212 54.2056 30.7595C52.8351 31.2992 51.6487 32.0404 50.6791 32.9633C49.7533 33.845 48.9273 34.9154 48.2255 36.1448C47.5488 37.3297 47.001 38.5657 46.5977 39.8187C46.2083 41.0301 45.8826 42.3551 45.6296 43.7571C45.379 45.1468 45.2088 46.4651 45.1246 47.6761C45.0418 48.8624 45 50.0937 45 51.3372C45 54.5736 46.0343 57.1937 48.0738 59.126C50.0881 61.0327 52.7534 62 55.9945 62H86.0055C89.2466 62 91.911 61.0332 93.9258 59.126C95.9657 57.1951 97 54.5746 97 51.3367C96.9995 50.0875 96.9572 48.8553 96.874 47.6746Z" fill="#00C0FF"/>
<defs>
<linearGradient id="paint0_linear_4159_3015" x1="0" y1="37" x2="22.9882" y2="71.942" gradientUnits="userSpaceOnUse">
<stop offset="0.0132289" stop-color="#00C0FF"/>
<stop offset="0.580971" stop-color="#5BD6FF"/>
<stop offset="1" stop-color="#00C0FF"/>
</linearGradient>
</defs>
</svg>
