<svg width="50" height="50" viewBox="0 0 60 60" fill="none" xmlns="http://www.w3.org/2000/svg">
<g filter="url(#filter0_b_4279_3763)">
<rect width="60" height="60" rx="12" fill="url(#paint0_linear_4279_3763)" fill-opacity="0.5"/>
</g>
<g filter="url(#filter1_f_4279_3763)">
<rect x="7" y="6" width="48" height="48" rx="10" fill="url(#paint1_linear_4279_3763)" fill-opacity="0.15"/>
</g>
<rect x="10" y="10" width="40" height="40" rx="8" fill="url(#paint2_linear_4279_3763)"/>
<path d="M35 24C35 26.7614 32.7614 29 30 29C27.2386 29 25 26.7614 25 24C25 21.2386 27.2386 19 30 19C32.7614 19 35 21.2386 35 24Z" stroke="white" stroke-width="1.5"/>
<path d="M40 42V39C40 35.6863 37.3137 33 34 33H26C22.6863 33 20 35.6863 20 39V42" stroke="white" stroke-width="1.5"/>
<defs>
<filter id="filter0_b_4279_3763" x="-5" y="-5" width="70" height="70" filterUnits="userSpaceOnUse" color-interpolation-filters="sRGB">
<feFlood flood-opacity="0" result="BackgroundImageFix"/>
<feGaussianBlur in="BackgroundImageFix" stdDeviation="2.5"/>
<feComposite in2="SourceAlpha" operator="in" result="effect1_backgroundBlur_4279_3763"/>
<feBlend mode="normal" in="SourceGraphic" in2="effect1_backgroundBlur_4279_3763" result="shape"/>
</filter>
<filter id="filter1_f_4279_3763" x="2" y="1" width="58" height="58" filterUnits="userSpaceOnUse" color-interpolation-filters="sRGB">
<feFlood flood-opacity="0" result="BackgroundImageFix"/>
<feBlend mode="normal" in="SourceGraphic" in2="BackgroundImageFix" result="shape"/>
<feGaussianBlur stdDeviation="2.5" result="effect1_foregroundBlur_4279_3763"/>
</filter>
<linearGradient id="paint0_linear_4279_3763" x1="0" y1="0" x2="60" y2="57" gradientUnits="userSpaceOnUse">
<stop offset="0.0132289" stop-color="#E3F8FF"/>
<stop offset="1" stop-color="#C6F1FF"/>
</linearGradient>
<linearGradient id="paint1_linear_4279_3763" x1="7" y1="6" x2="55" y2="51.6" gradientUnits="userSpaceOnUse">
<stop offset="0.0132289" stop-color="#00C0FF"/>
<stop offset="0.580971" stop-color="#5BD6FF"/>
<stop offset="1" stop-color="#00C0FF"/>
</linearGradient>
<linearGradient id="paint2_linear_4279_3763" x1="10" y1="10" x2="50" y2="48" gradientUnits="userSpaceOnUse">
<stop offset="0.0132289" stop-color="#00C0FF"/>
<stop offset="0.580971" stop-color="#5BD6FF"/>
<stop offset="1" stop-color="#00C0FF"/>
</linearGradient>
</defs>
</svg>
